<svg xmlns="http://www.w3.org/2000/svg" fill="none" viewBox="0 0 24 24" height="24" width="24" id="Building-8--Streamline-Cyber.svg"><desc>Building 8 Streamline Icon: https://streamlinehq.com</desc><path fill="#ffffff" d="M12.5 23.499h-11V7.99902l11 -3V23.499Z" stroke-width="1"></path><path fill="#ffffff" d="M21.5 23.499h-7V7.49902l7 1V23.499Z" stroke-width="1"></path><path fill="#bbd8ff" d="M12.5 4.99902 1.5 23.499h11V4.99902Z" stroke-width="1"></path><path fill="#bbd8ff" d="m21.5 8.49902 -7 14.99998h7V8.49902Z" stroke-width="1"></path><path fill="#bbd8ff" d="M3.5 7.45402v-4.955l5.5 1v2.454" stroke-width="1"></path><path stroke="#092f63" stroke-linecap="round" stroke-linejoin="round" d="M12.5 23.499h-11V7.99902l11 -3V23.499Z" stroke-width="1"></path><path stroke="#092f63" stroke-linecap="round" stroke-linejoin="round" d="M21.5 23.499h-7V7.49902l7 1V23.499Z" stroke-width="1"></path><path stroke="#092f63" stroke-linecap="round" stroke-linejoin="round" d="M16.5 10.499h3" stroke-width="1"></path><path stroke="#092f63" stroke-linecap="round" stroke-linejoin="round" d="M16.5 12.499h3" stroke-width="1"></path><path stroke="#092f63" stroke-linecap="round" stroke-linejoin="round" d="M16.5 14.499h3" stroke-width="1"></path><path stroke="#092f63" stroke-linecap="round" stroke-linejoin="round" d="M16.5 16.499h3" stroke-width="1"></path><path stroke="#092f63" stroke-linecap="round" stroke-linejoin="round" d="M16.5 18.499h3" stroke-width="1"></path><path stroke="#092f63" stroke-linecap="round" stroke-linejoin="round" d="M3.5 12.499h7" stroke-width="1"></path><path stroke="#092f63" stroke-linecap="round" stroke-linejoin="round" d="M4.5 9.49902h6" stroke-width="1"></path><path stroke="#092f63" stroke-linecap="round" stroke-linejoin="round" d="M3.5 15.499h7" stroke-width="1"></path><path stroke="#092f63" stroke-linecap="round" stroke-linejoin="round" d="M3.5 18.499h7" stroke-width="1"></path><path stroke="#092f63" stroke-linecap="round" stroke-linejoin="round" d="M8.5 20.499h-3v3h3v-3Z" stroke-width="1"></path><path stroke="#092f63" stroke-linecap="round" stroke-linejoin="round" d="M19.5 20.499h-3v3h3v-3Z" stroke-width="1"></path><path stroke="#092f63" stroke-linecap="round" stroke-linejoin="round" d="M0.5 23.499h23" stroke-width="1"></path><path stroke="#092f63" stroke-linecap="round" stroke-linejoin="round" d="M3.5 7.45402v-4.955l5.5 1v2.454" stroke-width="1"></path><path stroke="#092f63" stroke-linecap="round" stroke-linejoin="round" d="M7.5 3.22602V0.499023" stroke-width="1"></path></svg>