<?xml version="1.0" encoding="utf-8"?>
<!-- Generator: Adobe Illustrator 27.5.0, SVG Export Plug-In . SVG Version: 6.00 Build 0)  -->
<svg version="1.1" xmlns="http://www.w3.org/2000/svg" xmlns:xlink="http://www.w3.org/1999/xlink" x="0px" y="0px"
	 viewBox="0 0 750 500" style="enable-background:new 0 0 750 500;" xml:space="preserve">
<g id="BACKGROUND">
	<rect y="0.001" style="fill-rule:evenodd;clip-rule:evenodd;fill:#FFFFFF;" width="750" height="500"/>
</g>
<g id="OBJECTS">
	<g>
		<g>
			<path style="fill-rule:evenodd;clip-rule:evenodd;fill:#4F8276;" d="M86.448,475.282h281.046h281.438
				c7.234,0,13.153-5.918,13.153-13.152l0,0c0-7.234-5.919-13.154-13.153-13.154H634c-3.319,0-6.035-2.715-6.035-6.035l0,0
				c0-3.318,2.716-6.035,6.035-6.035h66.61c7.233,0,13.153-5.918,13.153-13.152l0,0c0-7.234-5.92-13.152-13.153-13.152H567.957
				H48.05c-7.233,0-13.153,5.92-13.153,13.152l0,0c0,7.234,5.919,13.152,13.153,13.152h47.104c3.319,0,6.035,2.717,6.035,6.035l0,0
				c0,3.32-2.716,6.035-6.035,6.035h-8.706c-7.233,0-13.153,5.92-13.153,13.154l0,0C73.295,469.362,79.214,475.282,86.448,475.282z"
				/>
			<path style="fill-rule:evenodd;clip-rule:evenodd;fill:#467164;" d="M577.279,435.04c6.721,0,12.219-5.5,12.219-12.221l0,0
				c0-6.721-5.5-12.219-12.219-12.219H116.187c-6.719,0-12.22,5.5-12.22,12.219l0,0c0,6.721,5.499,12.221,12.22,12.221
				C188.889,435.04,471.794,435.04,577.279,435.04z"/>
			<path style="fill-rule:evenodd;clip-rule:evenodd;fill:#D7DDF0;" d="M625.434,410.6c49.318,0,89.669-40.352,89.669-89.67l0,0
				c0-49.318-40.351-89.67-89.669-89.67l0,0c-20.854,0-37.915-17.061-37.915-37.914l0,0c0-20.854,17.061-37.914,37.915-37.914h4.512
				c21.681,0,39.419-17.738,39.419-39.419v-0.001c0-21.68-17.739-39.418-39.419-39.418h-82.607c-8.44,0-15.346-6.906-15.346-15.346
				l0,0c0-8.441,6.905-15.346,15.346-15.346h10.172c5.825,0,10.592-4.768,10.592-10.592l0,0c0-5.826-4.768-10.592-10.592-10.592
				h-38.121c0,0-14.566,0-28.622,0c-14.056,0-15.622,16.605-51.128,16.605c-54.888,0-203.849,0-258.736,0
				c-7.601,0-13.82,6.221-13.82,13.82l0,0c0,7.602,6.219,13.82,13.82,13.82h13.272c11.014,0,20.025,9.012,20.025,20.025l0,0
				c0,11.013-9.011,20.024-20.025,20.024h-70.863c-28.289,0-51.436,23.147-51.436,51.436v0.001
				c0,28.289,23.147,51.436,51.436,51.436h1.646c27.211,0,49.474,22.265,49.474,49.474l0,0c0,27.209-22.263,49.473-49.474,49.473
				h-20.472c-27.436,0-49.882,22.447-49.882,49.883l0,0c0,27.436,22.446,49.883,49.882,49.883
				C246.426,410.6,483.492,410.6,625.434,410.6L625.434,410.6z M587.232,45.903c-5.849,0-10.592-4.742-10.592-10.592
				s4.743-10.592,10.592-10.592c5.85,0,10.592,4.742,10.592,10.592S593.081,45.903,587.232,45.903z"/>
			<g>
				<g>
					<path style="fill-rule:evenodd;clip-rule:evenodd;fill:#203137;" d="M172.619,310.815c18.921-7.332,23.724,8.621,16.366,21.832
						c-7.357,13.211-45.102,57.645-47.073,75.268c-0.764,6.83-2.511,6.084-4.005,1.295
						C130.449,385.319,146.572,320.909,172.619,310.815z"/>
					<path style="fill-rule:evenodd;clip-rule:evenodd;fill:#447056;" d="M140.625,412.676c-0.545,0.568-1.173,0.123-1.799-1.103
						c-2.721-42.039,42.358-95.91,42.501-96.084c0.246-0.297,0.777-0.391,1.185-0.213c0.407,0.18,0.538,0.568,0.292,0.865
						C182.659,316.315,136.966,370.92,140.625,412.676z"/>
					<g>
						<path style="fill-rule:evenodd;clip-rule:evenodd;fill:#447056;" d="M132.556,250.285
							c-21.696-14.242-35.261,5.694-31.51,24.926c3.751,19.23,33.548,87.045,28.183,110.814c-2.08,9.213,0.567,8.648,4.71,2.676
							C154.602,358.915,162.421,269.891,132.556,250.285z"/>
						<path style="fill-rule:evenodd;clip-rule:evenodd;fill:#203137;" d="M128.776,392.631c0.464,0.883,1.495,0.445,2.878-1.025
							c22.611-54.918-12.613-136.971-12.724-137.234c-0.191-0.453-0.85-0.705-1.469-0.566c-0.62,0.139-0.968,0.619-0.777,1.072
							C116.795,255.141,152.499,338.315,128.776,392.631z"/>
					</g>
					<g>
						<path style="fill-rule:evenodd;clip-rule:evenodd;fill:#B6CF8C;" d="M85.17,295.915
							c-21.022-6.672-24.322,10.641-14.963,24.285c9.359,13.645,54.703,58.752,58.82,77.432c1.596,7.24,3.374,6.338,4.421,1.139
							C138.672,372.831,114.109,305.1,85.17,295.915z"/>
						<path style="fill-rule:evenodd;clip-rule:evenodd;fill:#739655;" d="M130.944,402.633c0.647,0.572,1.265,0.059,1.793-1.287
							c-1.904-45.01-56.15-99.738-56.323-99.914c-0.297-0.303-0.874-0.371-1.288-0.156c-0.414,0.217-0.509,0.637-0.212,0.939
							C75.087,302.393,130.074,357.868,130.944,402.633z"/>
					</g>
				</g>
				<g>
					<polygon style="fill-rule:evenodd;clip-rule:evenodd;fill:#3F425E;" points="114.771,385.141 155.157,385.141 165.702,394.659 
						157.088,427.838 134.964,427.838 112.84,427.838 104.226,394.659 					"/>
					<path style="fill-rule:evenodd;clip-rule:evenodd;fill:#3F425E;" d="M104.226,372.793h61.475c1.84,0,3.343,1.506,3.343,3.344
						v15.178c0,1.838-1.503,3.344-3.343,3.344h-61.475c-1.838,0-3.343-1.506-3.343-3.344v-15.178
						C100.883,374.299,102.388,372.793,104.226,372.793z"/>
					<polygon style="fill-rule:evenodd;clip-rule:evenodd;fill:#181C39;" points="165.702,394.659 163.931,401.477 105.997,401.477 
						104.226,394.659 					"/>
				</g>
			</g>
		</g>
		<g>
			<polygon style="fill-rule:evenodd;clip-rule:evenodd;fill:#575756;" points="334.803,152.805 244.215,153.863 270.06,273.036 
				337.482,283.799 			"/>
			<path style="fill-rule:evenodd;clip-rule:evenodd;fill:#6E6E6D;" d="M239.496,174.151l24.539,121.854l20.591,1.539
				l-24.417-126.05c-2.202-11.367-10.491-17.747-14.776-18.265C239.206,152.477,236.073,158.723,239.496,174.151z"/>
			<path style="fill-rule:evenodd;clip-rule:evenodd;fill:#002537;" d="M339.81,327.563h-15.258c-0.779,0-1.417,0.639-1.417,1.418
				v21.766c0,0.779,0.638,1.418,1.417,1.418h15.258c0.78,0,1.418-0.639,1.418-1.418v-21.766
				C341.228,328.202,340.59,327.563,339.81,327.563z"/>
			<path style="fill-rule:evenodd;clip-rule:evenodd;fill:#002537;" d="M335.313,317.354c0-1.686-1.366-3.051-3.05-3.051
				c-1.684,0-3.049,1.365-3.049,3.051v94.627h-39.555c-1.684,0-3.05,1.365-3.05,3.049c0,1.686,1.366,3.051,3.05,3.051h42.604h42.604
				c1.684,0,3.049-1.365,3.049-3.051c0-1.684-1.365-3.049-3.049-3.049h-39.555V317.354z"/>
			<path style="fill-rule:evenodd;clip-rule:evenodd;fill:#224660;" d="M375.027,428.743c4.089,0,7.424-3.334,7.424-7.424
				c0-4.088-3.335-7.422-7.424-7.422c-4.088,0-7.424,3.334-7.424,7.422C367.604,425.409,370.939,428.743,375.027,428.743z"/>
			<path style="fill-rule:evenodd;clip-rule:evenodd;fill:#224660;" d="M289.335,428.743c4.089,0,7.423-3.334,7.423-7.424
				c0-4.088-3.334-7.422-7.423-7.422c-4.088,0-7.423,3.334-7.423,7.422C281.912,425.409,285.247,428.743,289.335,428.743z"/>
			<path style="fill-rule:evenodd;clip-rule:evenodd;fill:#224660;" d="M332.1,428.743c4.089,0,7.423-3.334,7.423-7.424
				c0-4.088-3.335-7.422-7.423-7.422c-4.088,0-7.423,3.334-7.423,7.422C324.677,425.409,328.012,428.743,332.1,428.743z"/>
			<path style="fill-rule:evenodd;clip-rule:evenodd;fill:#575756;" d="M257.118,260.512c13.2,38.852-7.2,82.713,90,78.955
				c97.2-3.76,67.201-33.838,22.8-42.611c-44.4-8.771-67.2-43.863-67.2-43.863L257.118,260.512z"/>
			<path style="fill-rule:evenodd;clip-rule:evenodd;fill:#6E6E6D;" d="M262.304,284.598c4.593,30.754,7.551,57.857,84.814,54.869
				c66.033-2.555,73.351-17.254,57.34-29.17c-3.618-1.453-7.794-2.498-12.501-2.969c-21-2.1-54.6,7.199-74.7,6.9
				c-20.1-0.301-33.601-16.5-33.9-23.4C278.711,287.178,270.721,285.243,262.304,284.598z"/>
			<path style="fill-rule:evenodd;clip-rule:evenodd;fill:#87401A;" d="M340.471,309.588c7.203-0.133,27.834-3.154,36.207-2.514
				c7.768,0.594,13.966,2.08,16.791,4.148c21.088,15.434,15.971,58.529,11.068,99.803l-0.344,2.902l28.125,3.322l0.344-2.904
				c5.852-49.275,11.963-100.73-22.473-125.934c-7.078-5.18-18.611-8.596-31.408-9.574c-11.096-0.848-23.727,0.027-35.497,3.1
				L340.471,309.588z"/>
			<g>
				<path style="fill-rule:evenodd;clip-rule:evenodd;fill:#224660;" d="M427.21,408.053c-0.218,0.018-0.841-0.9-1.638-0.82
					c-5.128,0.514-20.227,3.084-20.546,3.492c-1.948,2.508-2.122,6.684-2.274,9.527c-0.201,3.738,1.088,6.258,4.879,7.879
					c13.315,5.693,48.148,0.654,49.398-4.012c1.553-5.791-0.479-14.23-10.577-17.703c-2.28-0.785-4.67-1.039-6.95-1.07
					C433.536,405.262,427.678,408.014,427.21,408.053z"/>
				<path style="fill-rule:evenodd;clip-rule:evenodd;fill:#002537;" d="M455.23,420.797c1.42-0.65,3.099-0.027,3.748,1.393
					c0.651,1.42,0.027,3.098-1.393,3.748c-7.047,3.242-19.992,5.781-31.912,5.889c-9.903,0.09-19.283-1.518-24.486-5.795
					c-1.202-0.99-1.376-2.768-0.387-3.971c0.988-1.201,2.766-1.375,3.969-0.387c4.051,3.33,12.111,4.574,20.844,4.496
					C436.799,426.069,448.805,423.753,455.23,420.797z"/>
				<path style="fill-rule:evenodd;clip-rule:evenodd;fill:#002537;" d="M429.188,405.858c0.532-0.242,1.16-0.006,1.402,0.525
					c0.241,0.533,0.006,1.16-0.527,1.402c-2.784,1.264-5.187,3.18-6.752,5.635c-1.393,2.184-2.123,4.813-1.867,7.803
					c0.049,0.582-0.383,1.096-0.965,1.145c-0.583,0.049-1.096-0.383-1.145-0.965c-0.299-3.49,0.559-6.563,2.192-9.125
					C423.318,409.465,426.043,407.284,429.188,405.858z"/>
			</g>
			<path style="fill-rule:evenodd;clip-rule:evenodd;fill:#E4AE91;" d="M349.224,217.305c-3.815-4.941-2.903-12.041,2.038-15.857
				c4.941-3.816,12.041-2.903,15.856,2.037c6.817,8.863,14.468,16.652,23.468,22.708c8.838,5.946,19.174,10.325,31.578,12.54
				c27.295,4.875,38.519,4.869,38.552,4.869c6.237,0.023,11.274,5.1,11.25,11.338c-0.024,6.238-5.101,11.273-11.339,11.25
				c-0.039,0-13.744-0.008-42.449-5.133c-15.594-2.785-28.76-8.406-40.171-16.084C366.757,237.404,357.406,227.942,349.224,217.305z
				"/>
			<path style="fill-rule:evenodd;clip-rule:evenodd;fill:#224660;" d="M332.526,178.92c14.741,2.88,27.74,13.493,39.21,26.152
				c5.369,5.927,10.939,12.074,16.707,16.779l-17.828,21.923c-7.267-5.929-13.651-12.974-19.807-19.768
				c-8.157-9.003-15.801-17.438-21.458-18.544L332.526,178.92z"/>
			<path style="fill-rule:evenodd;clip-rule:evenodd;fill:#A4461B;" d="M331.872,242.229c24.674,0,44.675,17.329,44.675,38.702
				c0,21.373-20.001,38.699-44.675,38.699c-24.674,0-44.676-17.326-44.676-38.699C287.196,259.557,307.198,242.229,331.872,242.229z
				"/>
			<path style="fill-rule:evenodd;clip-rule:evenodd;fill:#224660;" d="M377.73,285.194c0.082-0.254-19.619-56.809-21.453-66.619
				c-2.349-12.557-8.046-30.479-20.597-37.02c-17.93-9.346-41.095-8.198-45.58,6.348c-1.126,3.651-6.328,8.834-7.104,17.82
				c-0.166,1.929,3.925,5.941,3.774,8.02c-2.317,31.994-2.721,79.656-1.193,80.711c11.37-5.85,21.45-7.74,30.461-5.766
				C343.768,294.768,374.217,295.881,377.73,285.194z"/>
			<path style="fill-rule:evenodd;clip-rule:evenodd;fill:#224660;" d="M314.692,199.98c-6.798,0.261-13.306,1.044-19.939,4.138
				c-7.044,3.285-18.69,13.001-27.711,23.709l-20.592-19.66c12.099-14.361,25.94-24.887,36.345-29.738
				c10.816-5.044,20.724-6.293,30.901-6.684L314.692,199.98z"/>
			<path style="fill-rule:evenodd;clip-rule:evenodd;fill:#E4AE91;" d="M329.806,175.301c0.086,0.244-2.063,21.474-16.5,14.961
				c-11.313-5.104-15.6-16.73-15.6-16.73L329.806,175.301z"/>
			<path style="fill-rule:evenodd;clip-rule:evenodd;fill:#B77A65;" d="M329.806,175.301c0.035,0.098-0.289,3.538-1.605,7.223
				c-5.63,1.352-11.578,1.825-17.294,1.457c-2.584-0.166-5.005-0.504-7.277-0.992c-4.184-4.742-5.923-9.457-5.923-9.457
				L329.806,175.301z"/>
			<path style="fill-rule:evenodd;clip-rule:evenodd;fill:#A4461B;" d="M299.027,264.622h35.456
				c-0.534-10.236-17.912-16.12-28.062-11.109C302.762,255.321,300.922,258.635,299.027,264.622z"/>
			<path style="fill-rule:evenodd;clip-rule:evenodd;fill:#AC714F;" d="M274.475,228.6c-10-6-31-6.25-38.75,13.749
				c-7.75,20.001-4,22.001,8.75,22.001c12.75,0,58.75,0,58.75,0L274.475,228.6z"/>
			<path style="fill-rule:evenodd;clip-rule:evenodd;fill:#AC714F;" d="M258.043,239.233c-1.247-2.861,0.061-6.193,2.923-7.44
				c2.862-1.247,6.193,0.062,7.441,2.923c2.139,4.878,3.331,8.996,4.305,12.361c1.179,4.075,1.803,6.229,4.013,6.229l31.47,0.863
				c5.8,0,7.554,10.476,4.281,10.476h-35.75c-10.69,0-12.134-4.99-14.864-14.422C260.987,247.201,259.917,243.506,258.043,239.233z"
				/>
			<path style="fill-rule:evenodd;clip-rule:evenodd;fill:#94522B;" d="M244.128,256.456c2.501-0.016,4.543,1.777,4.563,4.006
				c0.02,2.23-1.992,4.053-4.492,4.07l-33.274,0.252c-2.942,0.022-5.353-1.291-7.039-3.41c-1.166-1.467-1.965-3.346-2.28-5.363
				c-0.298-1.908-0.179-3.994,0.461-6.004c1.164-3.652,3.97-7.074,8.989-8.871c2.324-0.83,4.964,0.176,5.895,2.247
				c0.932,2.072-0.197,4.428-2.521,5.258c-2.033,0.727-3.163,2.096-3.627,3.549c-1.681,5.281,5.335,4.512,9.674,4.478
				L244.128,256.456z"/>
			<path style="fill-rule:evenodd;clip-rule:evenodd;fill:#AC714F;" d="M257.935,239.233c-0.962-2.861,0.047-6.193,2.253-7.44
				c2.206-1.247,9.148,0.062,10.109,2.923c1.649,4.878,2.567,8.996,3.319,12.361c0.908,4.075,1.389,6.229,3.092,6.229h12.336
				c2.574,0.039,8.463,0.129,11.527,3.197c1.659,1.662,2.668,6.055,1.468,7.555c-0.783,0.98-9.007,0.588-10.183,0.588h-19.523
				c-8.239,0-9.352-4.99-11.456-14.422C260.203,247.201,259.379,243.506,257.935,239.233z"/>
			<path style="fill-rule:evenodd;clip-rule:evenodd;fill:#AC714F;" d="M256.513,236.624c4.394,10.517-6.516,18.379-2.46,17.623
				c12.804-2.391,17.74-1.291,20.76,1.465c3.087,2.818,3.028,8.808,0.164,8.808h-42.251
				C221.328,227.503,250.602,222.473,256.513,236.624z"/>
			<g>
				<path style="fill-rule:evenodd;clip-rule:evenodd;fill:#59321A;" d="M277.371,264.469c-0.032,0.389-0.374,0.68-0.764,0.646
					c-0.39-0.031-0.68-0.373-0.648-0.764c0.148-1.715,0.251-3.377-0.403-4.482c-0.636-1.074-2.082-1.738-5.1-1.633
					c-0.39,0.014-0.717-0.291-0.73-0.682c-0.014-0.389,0.291-0.717,0.681-0.73c3.644-0.127,5.473,0.816,6.367,2.324
					C277.649,260.628,277.538,262.524,277.371,264.469z"/>
				<path style="fill-rule:evenodd;clip-rule:evenodd;fill:#59321A;" d="M296.496,264.469c-0.032,0.389-0.374,0.68-0.764,0.646
					c-0.39-0.031-0.68-0.373-0.648-0.764c0.149-1.727,0.193-3.629-0.55-5.006c-0.709-1.314-2.217-2.211-5.219-2.105
					c-0.39,0.014-0.717-0.291-0.731-0.68c-0.014-0.391,0.291-0.719,0.681-0.73c3.66-0.129,5.56,1.08,6.514,2.846
					C296.699,260.381,296.662,262.534,296.496,264.469z"/>
				<path style="fill-rule:evenodd;clip-rule:evenodd;fill:#59321A;" d="M311.496,264.469c-0.032,0.389-0.375,0.68-0.764,0.646
					c-0.39-0.031-0.68-0.373-0.648-0.764c0.041-0.484,0.053-1.219,0.037-1.932c-0.016-0.686-0.057-1.363-0.12-1.789
					c-0.145-0.977-0.518-1.553-1.302-1.873c-0.953-0.389-2.489-0.494-4.816-0.486c-0.39,0-0.706-0.316-0.706-0.705
					c0-0.391,0.316-0.707,0.706-0.707c2.504-0.008,4.193,0.121,5.348,0.592c1.324,0.541,1.945,1.455,2.171,2.977
					c0.068,0.461,0.113,1.205,0.13,1.965C311.55,263.174,311.539,263.965,311.496,264.469z"/>
				<path style="fill-rule:evenodd;clip-rule:evenodd;fill:#59321A;" d="M300.183,264.471c-0.034,0.391-0.377,0.678-0.767,0.645
					c-0.39-0.033-0.678-0.377-0.645-0.766c0.134-1.564-0.01-3.353-0.595-4.77c-0.436-1.057-1.12-1.896-2.117-2.232
					c-0.195-0.066-3.589-0.119-7.356-0.148c-4.684-0.037-9.886-0.027-10.312,0.035c-0.387,0.057-0.746-0.211-0.803-0.598
					c-0.056-0.387,0.211-0.746,0.598-0.803c0.471-0.07,5.777-0.084,10.528-0.047c3.889,0.031,7.448,0.105,7.793,0.221
					c1.436,0.484,2.391,1.621,2.975,3.035C300.162,260.688,300.334,262.719,300.183,264.471z"/>
				<path style="fill-rule:evenodd;clip-rule:evenodd;fill:#59321A;" d="M255.859,236.895c-0.15-0.36,0.021-0.774,0.382-0.924
					c0.361-0.15,0.775,0.02,0.925,0.381c2.854,6.831-0.426,12.242-2.328,15.377c-0.589,0.973-1.028,1.695-1.025,1.977
					c0.001,0.107,0.066-0.164,0.234-0.166c3.974-0.037,7.124-0.146,9.644-0.234c7.117-0.25,9.375-0.328,11.62,1.906
					c0.827,0.822,1.446,1.846,1.858,2.914c0.451,1.17,0.655,2.402,0.613,3.486c-0.014,0.389-0.341,0.693-0.731,0.68
					c-0.39-0.014-0.694-0.34-0.681-0.73c0.035-0.902-0.138-1.938-0.519-2.926c-0.344-0.895-0.857-1.746-1.537-2.422
					c-1.812-1.803-3.924-1.729-10.579-1.496c-2.515,0.086-5.658,0.197-9.677,0.234c-1.173,0.012-1.649-0.412-1.657-1.234
					c-0.006-0.68,0.521-1.549,1.23-2.719C255.396,248.09,258.439,243.07,255.859,236.895z"/>
				<path style="fill-rule:evenodd;clip-rule:evenodd;fill:#59321A;" d="M315.183,264.457c-0.026,0.389-0.363,0.684-0.753,0.658
					c-0.39-0.025-0.685-0.363-0.659-0.752c0.138-2.014-0.012-4.322-0.614-6.16c-0.45-1.373-1.146-2.461-2.149-2.887L311,255.313
					c-0.276-0.074-3.603-0.137-7.295-0.174c-4.682-0.045-9.872-0.037-10.284,0.041c-0.383,0.072-0.753-0.18-0.825-0.564
					c-0.072-0.383,0.181-0.752,0.564-0.824c0.484-0.092,5.802-0.111,10.556-0.063c3.401,0.033,6.556,0.109,7.55,0.23
					c0.099-0.002,0.2,0.016,0.296,0.057c1.429,0.607,2.371,2.01,2.941,3.75C315.164,259.786,315.332,262.29,315.183,264.457z"/>
			</g>
			<path style="fill-rule:evenodd;clip-rule:evenodd;fill:#E4AE91;" d="M248.597,207.919c0.501-0.525,17.51,14.411,16.388,15.59
				c-4.592,4.834-7.252,9.004-8.279,12.439c-0.486,1.628-0.532,2.824-0.197,3.59c0.331,0.758,1.204,1.502,2.538,2.191
				c11.909,6.15,65.253,5.254,64.386,22.805l-52.305,0.582c-8.723,0-16.457-0.185-22.445-3.277
				c-6.001-3.1-10.42-7.586-12.903-13.266c-2.479-5.67-2.862-12.115-0.777-19.091C237.003,222.79,241.4,215.495,248.597,207.919z"/>
			<path style="fill-rule:evenodd;clip-rule:evenodd;fill:#B77A65;" d="M319.562,264.618c0.032,0.391-0.258,0.732-0.648,0.764
				c-0.39,0.033-0.732-0.258-0.764-0.647c-0.113-1.359-0.809-2.834-1.838-4.107l-0.027-0.035c-1.028-1.26-2.374-2.305-3.795-2.824
				l-3.125-1.143c-0.367-0.133-0.557-0.539-0.424-0.906c0.133-0.365,0.539-0.555,0.905-0.422l3.125,1.143
				c1.667,0.609,3.228,1.813,4.409,3.26l0.033,0.037C318.613,261.219,319.425,262.969,319.562,264.618z"/>
			<path style="fill-rule:evenodd;clip-rule:evenodd;fill:#B77A65;" d="M313.489,264.217c0.169,0.352,0.022,0.775-0.33,0.945
				c-0.351,0.17-0.774,0.022-0.944-0.33c-0.514-1.064-1.265-2.094-2.159-2.947c-0.843-0.807-1.811-1.455-2.822-1.83l-0.057-0.025
				c-2.893-1.072-2.822-1.074-2.822-1.074c-0.391,0-0.709-0.316-0.709-0.709c0-0.391,0.317-0.707,0.709-0.707
				c0.001,0,0.165,0,3.313,1.168l0.058,0.018c1.193,0.443,2.325,1.199,3.304,2.135C312.047,261.832,312.902,263.003,313.489,264.217
				z"/>
			<g>
				<g>
					<path style="fill-rule:evenodd;clip-rule:evenodd;fill:#525251;" d="M452.684,256.622h-77.75c-2.199,0-4,1.799-4,4l0,0
						c0,2.201,1.801,4,4,4h77.75c2.201,0,4-1.799,4-4l0,0C456.684,258.42,454.885,256.622,452.684,256.622z"/>
					<path style="fill-rule:evenodd;clip-rule:evenodd;fill:#6E6E6D;" d="M524.289,205.372h-95.161
						c-3.118,0-6.435,2.551-7.368,5.669l-14.361,47.911c-0.935,3.119,0.852,5.67,3.971,5.67h95.161c3.118,0,6.435-2.551,7.368-5.67
						l14.361-47.911C529.193,207.922,527.408,205.372,524.289,205.372z"/>
					<path style="fill-rule:evenodd;clip-rule:evenodd;fill:#C4C4C4;" d="M475.605,230.346c-0.691,0-1.391,0.094-2.083,0.27
						c0.24,0.499,0.279,1.131,0.063,1.818c-0.509,1.614-2.229,2.922-3.843,2.922c-0.931,0-1.623-0.435-1.943-1.113
						c-0.924,1.069-1.645,2.297-2.057,3.604c-1.307,4.142,0.992,7.499,5.135,7.499c4.142,0,8.559-3.357,9.864-7.499
						C482.047,233.704,479.748,230.346,475.605,230.346z"/>
					<path style="fill-rule:evenodd;clip-rule:evenodd;fill:#575756;" d="M527.289,209.122h-71.893h-23.268
						c-3.118,0-6.435,2.551-7.368,5.669l-6.753,22.527l-5.786,19.304l-1.822,6.08c-0.18,0.598-0.258,1.176-0.247,1.717
						c0.001,0.02,0.001,0.041,0.001,0.061c-0.076-0.018-0.15-0.039-0.225-0.061c-2.197-0.662-3.309-2.867-2.529-5.467l0.699-2.33
						l5.678-18.946l7.984-26.635c0.934-3.118,4.25-5.669,7.368-5.669h29.021h66.141c2.498,0,4.142,1.637,4.217,3.891
						C528.128,209.17,527.721,209.122,527.289,209.122z"/>
				</g>
			</g>
			<path style="fill-rule:evenodd;clip-rule:evenodd;fill:#774735;" d="M516.599,272.448c-0.554-3.25,1.63-6.332,4.878-6.887
				c3.249-0.555,6.332,1.631,6.887,4.879l26.484,154.418c0.555,3.248-1.63,6.332-4.879,6.887c-3.248,0.555-6.33-1.631-6.885-4.879
				L516.599,272.448z"/>
			<path style="fill-rule:evenodd;clip-rule:evenodd;fill:#B77A65;" d="M482.696,272.448c-0.555-3.25,1.63-6.332,4.878-6.887
				c3.249-0.555,6.332,1.631,6.887,4.879l26.484,154.418c0.555,3.248-1.63,6.332-4.879,6.887c-3.248,0.555-6.331-1.631-6.885-4.879
				L482.696,272.448z"/>
			<path style="fill-rule:evenodd;clip-rule:evenodd;fill:#B77A65;" d="M228.022,270.44c0.554-3.248,3.637-5.434,6.886-4.879
				c3.249,0.555,5.433,3.637,4.878,6.887l-26.485,154.418c-0.554,3.248-3.637,5.434-6.886,4.879
				c-3.249-0.555-5.433-3.639-4.878-6.887L228.022,270.44z"/>
			<path style="fill-rule:evenodd;clip-rule:evenodd;fill:#774735;" d="M267.838,270.44c0.554-3.248,3.637-5.434,6.886-4.879
				c3.249,0.555,5.433,3.637,4.878,6.887l-26.485,154.418c-0.555,3.248-3.637,5.434-6.886,4.879
				c-3.249-0.555-5.433-3.639-4.879-6.887L267.838,270.44z"/>
			<path style="fill-rule:evenodd;clip-rule:evenodd;fill:#935B47;" d="M180.179,262.315h375.065c4.777,0,8.685,3.908,8.685,8.684
				V271c0,4.775-3.908,8.686-8.685,8.686H180.179c-4.777,0-8.686-3.908-8.686-8.686v-0.002
				C171.493,266.223,175.401,262.315,180.179,262.315z"/>
			<path style="fill-rule:evenodd;clip-rule:evenodd;fill:#774735;" d="M563.918,271.444c-0.232,4.572-4.046,8.242-8.674,8.242
				H180.178c-4.628,0-8.441-3.67-8.674-8.242H563.918z"/>
			<path style="fill-rule:evenodd;clip-rule:evenodd;fill:#A4461B;" d="M327.466,317.811c23.52,6.783,40.571-17.736,58.723-14.854
				c17.729,2.815,35.293,16.93,53.957,51.539l24.914-13.398c-23.551-43.672-48.134-61.867-74.441-66.045
				c-25.882-4.109-52.254,6.049-79.251,18.52L327.466,317.811z"/>
			<g>
				<path style="fill-rule:evenodd;clip-rule:evenodd;fill:#224660;" d="M458.38,336.922c-0.173,0.133-1.192-0.307-1.822,0.191
					c-4.044,3.193-15.384,13.486-15.433,14.004c-0.292,3.162,1.811,6.773,3.213,9.254c1.844,3.258,4.287,4.688,8.355,4.012
					c14.285-2.371,40.925-25.373,39.466-29.979c-1.811-5.715-8.066-11.732-18.445-9.223c-2.344,0.566-4.494,1.639-6.433,2.84
					C462.209,331.165,458.753,336.635,458.38,336.922z"/>
				<path style="fill-rule:evenodd;clip-rule:evenodd;fill:#002537;" d="M488.854,332.575c0.846-1.314,2.597-1.691,3.909-0.846
					s1.69,2.596,0.845,3.91c-4.193,6.525-13.735,15.633-23.722,22.143c-8.298,5.408-17.067,9.104-23.755,8.301
					c-1.546-0.185-2.648-1.59-2.463-3.137c0.186-1.547,1.59-2.648,3.137-2.463c5.205,0.625,12.668-2.666,19.984-7.436
					C476.16,346.94,485.029,338.524,488.854,332.575z"/>
				<path style="fill-rule:evenodd;clip-rule:evenodd;fill:#002537;" d="M458.863,334.006c0.318-0.49,0.975-0.629,1.465-0.311
					c0.49,0.318,0.631,0.975,0.311,1.465c-1.665,2.564-2.659,5.471-2.655,8.383c0.002,2.592,0.801,5.199,2.627,7.58
					c0.355,0.465,0.268,1.129-0.197,1.486c-0.464,0.355-1.129,0.268-1.484-0.197c-2.131-2.779-3.063-5.832-3.065-8.869
					C455.86,340.207,456.982,336.901,458.863,334.006z"/>
			</g>
			<path style="fill-rule:evenodd;clip-rule:evenodd;fill:#A4461B;" d="M294.916,170.842c12.25,19.5,22.25,20.75,22.25,20.75
				l-7.25,14.749c0,0-13.75-16.624-16.875-25.499s-2.25-5.5-2.25-5.5L294.916,170.842z"/>
			<path style="fill-rule:evenodd;clip-rule:evenodd;fill:#A4461B;" d="M322.791,190.342c6.75,3.75,13.125,8,13.125,8
				s-1-13.75-3.375-20.625s-2.5-6.875-2.5-6.875l-2,0.25C328.041,171.092,330.166,178.841,322.791,190.342z"/>
			<path style="fill-rule:evenodd;clip-rule:evenodd;fill:#381C0A;" d="M341.561,80.102c30.783,9.385,19.381,41.437,9.91,56.576
				c-9.472,15.139-9.472,15.139-9.472,15.139L341.561,80.102z"/>
			<path style="fill-rule:evenodd;clip-rule:evenodd;fill:#E4AE91;" d="M352.724,97.956c2.369,16.45,4.679,31.944,4.125,42.537
				c-0.224,4.285-0.624,8.211-1.163,11.871c-2.958,20.07-25.227,28.625-44.78,27.367c-19.027-1.223-29.241-11.717-35.621-23.43
				c-0.904-1.658-2.362-2.767-3.637-3.672c0,0-15.19-4.992-16.779-16.92c-1.59-11.93,10.034-8.941,10.034-8.941
				s-1.452-17.238,6.357-38.123C281.8,60.461,350.716,84.012,352.724,97.956z"/>
			<path style="fill-rule:evenodd;clip-rule:evenodd;fill:#D1967D;" d="M352.724,97.956l0.421,2.925
				c-2.253-2.434-4.618-4.37-4.618-4.37s-12.9,7.201-34.8,8.101c-21.9,0.899-27.6-8.25-28.8,0.3c-1.2,8.551-0.15,10.051-5.85,22.801
				c0,0-3.45-15-3.45-19.65c0-4.65,1.35-19.051,1.35-19.051s2.55-0.899,4.8-1.5c2.25-0.6,18.75-1.049,31.35-3.149
				c8.156-1.359,12.164-2.467,15.238-3.079C341.556,85.988,351.962,92.663,352.724,97.956z"/>
			<path style="fill-rule:evenodd;clip-rule:evenodd;fill:#B4856F;" d="M355.906,150.797c-0.07,0.527-0.143,1.051-0.22,1.566
				c-2.958,20.07-25.227,28.625-44.78,27.367c-19.027-1.223-29.241-11.717-35.621-23.43c-0.352-0.645-0.788-1.208-1.265-1.707
				c-0.096-4.759,0.031-11.842,0.031-11.842l2.999-3c5.85,15.9,13.95,28.501,28.95,32.551c15,4.05,36.15,0.449,44.4-12.301
				C352.706,156.442,354.507,153.372,355.906,150.797z"/>
			<path style="fill-rule:evenodd;clip-rule:evenodd;fill:#381C0A;" d="M304.875,121.913c-2.951,0.395-4.931,3.791-4.422,7.586
				c0.509,3.794,3.314,6.549,6.265,6.153c2.951-0.396,4.931-3.792,4.422-7.587C310.631,124.271,307.826,121.516,304.875,121.913z"/>
			<path style="fill-rule:evenodd;clip-rule:evenodd;fill:#002537;" d="M273.234,245.264c-4.25,4.75-3.5,17.125-3.5,17.125h6.876
				c0,0,0.75-10.375,3.625-13.625C283.109,245.514,273.234,245.264,273.234,245.264z"/>
			<path style="fill-rule:evenodd;clip-rule:evenodd;fill:#FFFFFF;" d="M303.832,124.19c-0.857,0.115-1.458,0.903-1.344,1.76
				c0.115,0.857,0.903,1.459,1.76,1.344c0.857-0.114,1.458-0.902,1.343-1.76C305.477,124.677,304.689,124.076,303.832,124.19z"/>
			<path style="fill-rule:evenodd;clip-rule:evenodd;fill:#381C0A;" d="M340.523,118.769c-2.951,0.396-4.931,3.792-4.422,7.587
				c0.508,3.794,3.313,6.549,6.264,6.153c2.951-0.395,4.931-3.792,4.422-7.587C346.279,121.128,343.475,118.374,340.523,118.769z"/>
			<path style="fill-rule:evenodd;clip-rule:evenodd;fill:#FFFFFF;" d="M339.48,121.047c-0.857,0.115-1.459,0.903-1.344,1.76
				c0.115,0.857,0.902,1.459,1.76,1.344c0.857-0.115,1.458-0.902,1.343-1.76C341.125,121.534,340.337,120.932,339.48,121.047z"/>
			<path style="fill-rule:evenodd;clip-rule:evenodd;fill:#381C0A;" d="M347.543,114.124l-15.118,0.041
				c0.938-3.986,5.02-5.903,8.284-5.484C345.767,109.329,350.125,114.116,347.543,114.124z"/>
			<path style="fill-rule:evenodd;clip-rule:evenodd;fill:#381C0A;" d="M295.418,117.944l14.883-2.407
				C303.994,104.994,293.823,118.203,295.418,117.944z"/>
			<path style="fill-rule:evenodd;clip-rule:evenodd;fill:#B77A65;" d="M261.716,132.862c-2.78,0.396-3.291,3.793-1.141,7.587
				c2.149,3.794,6.146,6.55,8.926,6.153c2.78-0.395,3.291-3.792,1.141-7.586C268.492,135.221,264.496,132.466,261.716,132.862z"/>
			<path style="fill-rule:evenodd;clip-rule:evenodd;fill:#381C0A;" d="M282.499,93.743c0,0-1.148,4.642-1.45,8.674
				c-0.579,7.753,2.267,10.193,1.145,19.789c-0.763,6.525-2.408,17.928-7.715,22.431c-0.441,0.374-0.817,0.14-1.145-2.316
				c-1.596-11.966-6.12-18.347-15.485-15.121c0,0-5.022-29.292,0.484-38.023c5.506-8.732,11.297-7.95,11.297-7.95
				c14.891-29.694,52.874-25.655,70.911-12.331c10.641,7.859,14.008,23.285,1.959,28.541
				C327.495,103.981,288.262,105.178,282.499,93.743z"/>
			<path style="fill-rule:evenodd;clip-rule:evenodd;fill:#64422C;" d="M269.902,80.706c1.331-2.57,2.833-4.888,4.486-6.957
				c14.267,4.682,38.879,8.615,56.82-1.805c2.32-1.348,4.55-2.959,6.657-4.867c0.933,0.584,1.826,1.191,2.675,1.818
				c4.107,3.033,7.129,7.195,8.601,11.463c-4.483,3.06-13.503,7.718-27.915,8.804C303.346,90.508,281.667,86.655,269.902,80.706z"/>
			<path style="fill-rule:evenodd;clip-rule:evenodd;fill:#2B1600;" d="M308.893,153.982c-0.419-0.407-0.429-1.079-0.021-1.499
				c0.408-0.419,1.08-0.429,1.499-0.02c3.288,3.196,6.75,4.834,10.046,5.452c3.315,0.621,6.473,0.215,9.119-0.671
				c2.629-0.882,4.735-2.226,5.973-3.499c0.599-0.616,0.963-1.172,1.042-1.592c0.107-0.576,0.662-0.955,1.237-0.848
				c0.575,0.107,0.955,0.662,0.847,1.236c-0.156,0.831-0.717,1.766-1.607,2.681c-1.444,1.485-3.853,3.036-6.82,4.031
				c-2.951,0.988-6.477,1.44-10.182,0.745C316.355,159.311,312.513,157.501,308.893,153.982z"/>
			<path style="fill-rule:evenodd;clip-rule:evenodd;fill:#B77A65;" d="M323.972,141.87c3.31,1.257,10.305-0.733,10.305-0.733
				S330.65,150.662,323.972,141.87z"/>
			<path style="fill-rule:evenodd;clip-rule:evenodd;fill:#002537;" d="M360.255,234.141c0,0.391-0.318,0.709-0.709,0.709
				c-0.391,0-0.708-0.318-0.708-0.709c0-2.145-2.194-10.051-4.826-17.598c-2.13-6.105-4.536-11.938-6.277-14.224
				c-0.237-0.309-0.178-0.754,0.132-0.991c0.31-0.236,0.754-0.178,0.991,0.133c1.838,2.414,4.316,8.393,6.488,14.617
				C358.023,223.754,360.255,231.866,360.255,234.141z"/>
			<path style="fill-rule:evenodd;clip-rule:evenodd;fill:#002537;" d="M287.183,215.639c0,0.392-0.317,0.709-0.709,0.709
				c-0.391,0-0.709-0.317-0.709-0.709c0-7.854-2.931-14.449-2.939-14.467c-0.156-0.357,0.008-0.774,0.365-0.93
				c0.358-0.156,0.774,0.008,0.93,0.365C284.13,200.628,287.183,207.495,287.183,215.639z"/>
			<g>
				<path style="fill-rule:evenodd;clip-rule:evenodd;fill:#AC714F;" d="M302.941,213.608c12.079-8.305,14.473-9.279,15.174-9.068
					c0.702,0.209-0.75,19.765-0.75,19.765S297.504,219.358,302.941,213.608z"/>
				<path style="fill-rule:evenodd;clip-rule:evenodd;fill:#C6323E;" d="M318.238,209.616c-0.206,5.535-0.802,13.729-0.867,14.607
					c-1.909-0.507-12.42-3.478-10.994-7.027l1.837,1.092l4.322-4.24c0,0-0.18,0-2.415,0.141c6.248-4.189,7.65-4.719,8.103-4.583
					C318.229,209.606,318.233,209.612,318.238,209.616z"/>
				<path style="fill-rule:evenodd;clip-rule:evenodd;fill:#AC714F;" d="M285.868,213.805c-12.293-8.023-14.711-8.942-15.407-8.716
					c-0.696,0.227,1.268,19.742,1.268,19.742S291.453,219.427,285.868,213.805z"/>
				<path style="fill-rule:evenodd;clip-rule:evenodd;fill:#C6323E;" d="M270.411,209.157c0.322,5.779,1.317,15.675,1.317,15.675
					s0.505-0.139,1.329-0.394c3.872-1.275,11.794-4.348,9.878-7.615l-2.263,1.344l-4.322-4.24c0,0,0.203,0,2.855,0.169
					C273.357,210.364,271.251,209.321,270.411,209.157z"/>
				<path style="fill-rule:evenodd;clip-rule:evenodd;fill:#AC714F;" d="M294.308,212.107c14.575-0.168,26.513,9.133,26.665,20.774
					c0.152,11.64-10.789,18.814-25.363,18.984c-7.164,0.082-14.44,0.277-19.243-3.368c-4.969-3.771-8.095-9.087-8.173-15.007
					C268.042,221.85,279.733,212.276,294.308,212.107z"/>
				<path style="fill-rule:evenodd;clip-rule:evenodd;fill:#94522B;" d="M320.835,230.94c0.082,0.639,0.129,1.286,0.138,1.941
					c0.003,0.27-0.001,0.537-0.01,0.805c-2.392,0.338-3.765,0.357-3.77,0.357c-0.808,0-1.462-0.615-1.462-1.374
					c0-0.759,0.655-1.374,1.462-1.374c0.004,0,1.293-0.018,3.539-0.345C320.767,230.946,320.801,230.942,320.835,230.94
					L320.835,230.94z M320.884,234.843c-0.097,0.948-0.271,1.878-0.52,2.788c-3.088,0.506-4.922,0.533-4.928,0.533
					c-0.808,0-1.462-0.615-1.462-1.373c0-0.76,0.655-1.374,1.462-1.374c0.005,0,1.823-0.027,4.942-0.571
					C320.55,234.817,320.721,234.817,320.884,234.843L320.884,234.843z M319.896,239.089c-0.335,0.903-0.742,1.782-1.218,2.631
					c-1.717,0.203-2.692,0.217-2.696,0.217c-0.808,0-1.462-0.615-1.462-1.374c0-0.758,0.655-1.373,1.462-1.373
					c0.003,0,1.071-0.016,2.986-0.271C319.302,238.876,319.625,238.943,319.896,239.089L319.896,239.089z M271.514,243.506
					c-0.636-0.91-1.189-1.863-1.652-2.85l0.037,0.003c4.092,0.307,6.464,0.075,6.471,0.074c0.805-0.059,1.508,0.506,1.571,1.261
					c0.063,0.756-0.538,1.416-1.342,1.475C276.592,243.471,274.732,243.65,271.514,243.506L271.514,243.506z M269.221,239.106
					c-0.331-0.916-0.586-1.859-0.758-2.824c4.996,0.495,7.961,0.207,7.97,0.207c0.805-0.066,1.514,0.494,1.583,1.25
					c0.069,0.755-0.526,1.421-1.331,1.486C276.676,239.225,273.889,239.495,269.221,239.106L269.221,239.106z M268.271,234.87
					c-0.043-0.455-0.069-0.915-0.076-1.379c-0.006-0.459,0.008-0.914,0.039-1.365c3.582,0.221,5.634,0.023,5.64,0.022
					c0.801-0.083,1.523,0.46,1.611,1.212c0.088,0.753-0.49,1.431-1.292,1.514C274.187,234.874,272,235.087,268.271,234.87z"/>
				<path style="fill-rule:evenodd;clip-rule:evenodd;fill:#59321A;" d="M294.308,212.108c0.352-0.005,0.702-0.002,1.051,0.006
					c2.268,5.125,2.891,8.514,2.893,8.523c0.126,0.747-0.416,1.448-1.211,1.566c-0.795,0.119-1.542-0.391-1.669-1.137
					c-0.001-0.01-0.604-3.277-2.937-8.412c-0.069-0.152-0.106-0.309-0.115-0.465C292.976,212.143,293.639,212.116,294.308,212.108
					L294.308,212.108z M297.291,212.208c-0.025,0.214,0.004,0.438,0.094,0.65c1.826,4.327,2.317,6.996,2.318,7.003
					c0.132,0.747,0.885,1.251,1.68,1.127c0.795-0.124,1.332-0.831,1.2-1.577c-0.001-0.008-0.489-2.663-2.166-6.807
					C299.395,212.423,298.353,212.291,297.291,212.208L297.291,212.208z M287.879,212.815c0.016,0.076,0.04,0.153,0.072,0.229
					c1.796,4.275,2.283,6.92,2.284,6.927c0.132,0.747,0.885,1.251,1.68,1.127c0.795-0.124,1.332-0.831,1.2-1.577
					c-0.001-0.009-0.518-2.818-2.324-7.186C289.801,212.453,288.829,212.613,287.879,212.815z"/>
				<path style="fill-rule:evenodd;clip-rule:evenodd;fill:#F2DDC5;" d="M317.851,243.066c-7.476,11.147-32.61,12.272-41.631,5.316
					c4.404-6.566,13.022-11.083,22.991-11.198C306.447,237.102,313.034,239.354,317.851,243.066z"/>
				<path style="fill-rule:evenodd;clip-rule:evenodd;fill:#381C0A;" d="M297.853,243.174c0,0,7.426-3.767,6.119-5.66
					c-0.947-1.371-11.599-1.064-12.483,0.359C290.268,239.838,297.853,243.174,297.853,243.174z"/>
				<path style="fill-rule:evenodd;clip-rule:evenodd;fill:#381C0A;" d="M297.07,241.66c0.027-0.39,0.366-0.683,0.756-0.656
					c0.39,0.027,0.683,0.365,0.656,0.755c-0.175,2.424,0.418,3.77,1.275,4.342c0.366,0.244,0.79,0.35,1.221,0.338
					c0.452-0.01,0.916-0.148,1.34-0.387c0.953-0.535,1.669-1.568,1.559-2.791c-0.035-0.389,0.251-0.732,0.639-0.768
					c0.388-0.035,0.732,0.252,0.767,0.639c0.167,1.838-0.88,3.371-2.272,4.154c-0.616,0.348-1.309,0.549-2,0.564
					c-0.711,0.018-1.418-0.16-2.041-0.576C297.727,246.443,296.852,244.68,297.07,241.66z"/>
				<path style="fill-rule:evenodd;clip-rule:evenodd;fill:#381C0A;" d="M296.96,241.666c-0.047-0.388,0.229-0.742,0.617-0.788
					c0.388-0.048,0.741,0.229,0.789,0.617c0.37,3.004-0.416,4.813-1.619,5.705c-0.6,0.445-1.297,0.66-2.009,0.678
					c-0.69,0.018-1.391-0.148-2.023-0.463c-1.431-0.713-2.553-2.191-2.478-4.035c0.015-0.389,0.344-0.693,0.733-0.678
					c0.39,0.016,0.693,0.344,0.678,0.734c-0.05,1.229,0.719,2.225,1.698,2.711c0.435,0.217,0.906,0.33,1.359,0.318
					c0.43-0.01,0.847-0.137,1.202-0.4C296.732,245.449,297.256,244.078,296.96,241.666z"/>
				<path style="fill-rule:evenodd;clip-rule:evenodd;fill:#FFFFFF;" d="M296.467,237.249c-1.756,0.046-3.009,0.396-2.797,0.783
					c0.211,0.387,1.806,0.662,3.562,0.615c1.756-0.047,3.008-0.398,2.797-0.783C299.818,237.477,298.223,237.202,296.467,237.249z"
					/>
				<path style="fill-rule:evenodd;clip-rule:evenodd;fill:#381C0A;" d="M288.71,227.417c-0.047-0.389,0.229-0.742,0.617-0.789
					c0.388-0.048,0.741,0.229,0.789,0.617c0.37,3.004-0.416,4.811-1.618,5.705c-0.6,0.445-1.297,0.659-2.01,0.678
					c-0.69,0.018-1.391-0.148-2.023-0.464c-1.431-0.712-2.553-2.19-2.478-4.034c0.015-0.389,0.344-0.693,0.733-0.678
					c0.39,0.016,0.693,0.344,0.678,0.734c-0.049,1.228,0.719,2.224,1.698,2.71c0.435,0.217,0.907,0.331,1.359,0.319
					c0.429-0.011,0.847-0.137,1.202-0.4C288.482,231.2,289.006,229.829,288.71,227.417z"/>
				<path style="fill-rule:evenodd;clip-rule:evenodd;fill:#381C0A;" d="M301.948,226.745c0.047-0.389,0.401-0.665,0.789-0.617
					c0.388,0.047,0.664,0.4,0.617,0.789c-0.297,2.412,0.228,3.783,1.054,4.398c0.355,0.264,0.772,0.39,1.202,0.4
					c0.453,0.012,0.924-0.103,1.359-0.319c0.979-0.487,1.747-1.482,1.698-2.71c-0.015-0.391,0.288-0.719,0.678-0.734
					c0.39-0.016,0.718,0.288,0.733,0.678c0.074,1.844-1.048,3.322-2.478,4.034c-0.633,0.315-1.334,0.481-2.023,0.464
					c-0.712-0.019-1.41-0.232-2.01-0.678C302.364,231.556,301.579,229.749,301.948,226.745z"/>
			</g>
			<path style="fill-rule:evenodd;clip-rule:evenodd;fill:#87401A;" d="M311.954,297.042c-0.291,0.26-0.737,0.234-0.997-0.057
				c-0.259-0.289-0.235-0.736,0.055-0.996c2.001-1.795,4.006-3.389,6.043-4.822c2.04-1.436,4.125-2.719,6.285-3.895
				c0.342-0.186,0.771-0.059,0.957,0.283c0.186,0.342,0.06,0.771-0.282,0.957c-2.101,1.143-4.14,2.4-6.146,3.811
				C315.861,293.737,313.898,295.295,311.954,297.042z"/>
			<path style="fill-rule:evenodd;clip-rule:evenodd;fill:#002537;" d="M319.939,191.736c-0.122-0.37,0.078-0.769,0.448-0.892
				c0.37-0.121,0.769,0.079,0.891,0.449c6.273,18.819,8.773,36.32,8.781,36.371c0.055,0.387-0.214,0.746-0.601,0.801
				c-0.387,0.055-0.746-0.215-0.8-0.602C328.651,227.814,326.165,210.417,319.939,191.736z"/>
			<path style="fill-rule:evenodd;clip-rule:evenodd;fill:#14394F;" d="M379.436,232.929c-6.568-4.657-18.106-13.2-26.281-22.061
				c0.612,2.369,2.723,5.566,3.123,7.707c0.037,0.196,0.081,0.411,0.131,0.644c1.488,4.53,2.737,8.915,3.38,11.866
				c0.383,1.231,0.788,2.518,1.21,3.848c3.06,3.098,6.243,6.091,9.617,8.843L379.436,232.929z"/>
			<path style="fill-rule:evenodd;clip-rule:evenodd;fill:#B4856F;" d="M327.377,147.552c-0.15,3.525-0.375,4.425-0.375,4.425
				s-9.45-0.074-13.725-1.799c-4.275-1.727-4.65-1.876-4.65-1.876L327.377,147.552z"/>
			<path style="fill-rule:evenodd;clip-rule:evenodd;fill:#B4856F;" d="M329.482,147.598c0.816,3.431,1.158,4.279,1.158,4.279
				s6.724-1.457,9.425-3.773c2.702-2.315,2.938-2.518,2.938-2.518L329.482,147.598z"/>
			<path style="fill-rule:evenodd;clip-rule:evenodd;fill:#002537;" d="M353.79,124.098c-0.005-0.055-0.005-0.108-0.001-0.162
				l-19.899,2.217c-0.103,0.092-0.227,0.16-0.366,0.201c-0.079,3.225,0.212,13.442,7.108,13.282l1.282-0.025
				c1.207-0.023,2.354-0.045,3.514-0.119C351.354,139.111,354.935,137.143,353.79,124.098L353.79,124.098z M358.455,121.42
				c0.541-0.06,1.04,0.332,1.112,0.875c0.073,0.543-0.307,1.033-0.848,1.092l-3.007,0.336c0.029,0.079,0.047,0.164,0.055,0.252
				c1.298,14.789-3.027,17.038-10.168,17.497c-1.072,0.068-2.308,0.093-3.607,0.116l-1.267,0.026
				c-5.924,0.138-8.066-5.162-8.81-9.773c-1.647-1.342-3.412-1.877-5.194-1.717c-1.968,0.178-3.997,1.197-5.956,2.916
				c-0.054,0.047-0.111,0.087-0.171,0.12c-0.825,4.171-2.969,8.769-8.346,9.595c-1.439,0.222-2.883,0.352-4.305,0.363
				c-3.545,0.027-6.866-0.705-9.536-2.641c-2.687-1.948-4.672-5.069-5.506-9.79c-0.169-0.957-0.29-1.991-0.361-3.103l-22.855,0.823
				c-0.546,0.02-1.014-0.408-1.046-0.954c-0.032-0.546,0.384-1.005,0.93-1.024l23.479-0.846c0.121-0.056,0.255-0.087,0.398-0.088
				c0.131-0.001,0.257,0.023,0.373,0.069C318.28,125.108,334.748,124.061,358.455,121.42L358.455,121.42z M331.541,126.494
				c-1.653,0.092-4.755,0.257-10.473,0.546c0.025,0.779,0.026,1.939-0.085,3.283c1.799-1.254,3.662-2.004,5.52-2.17
				c1.748-0.158,3.473,0.197,5.117,1.125C331.542,128.174,331.531,127.207,331.541,126.494L331.541,126.494z M294.516,127.532
				c0.066,1.015,0.18,1.968,0.338,2.862c0.733,4.149,2.419,6.849,4.685,8.491c2.282,1.654,5.196,2.281,8.342,2.257
				c1.297-0.011,2.65-0.135,4.026-0.347c7.051-1.084,7.295-10.656,7.189-13.723L294.516,127.532z"/>
			<g>
				<path style="fill-rule:evenodd;clip-rule:evenodd;fill:#FFFFFF;" d="M343.987,234.944c0.458,0.28,0.605,0.886,0.325,1.345
					c-0.28,0.458-0.886,0.605-1.345,0.325c-0.82-0.502-1.599-1.125-2.179-1.898c-0.609-0.812-0.961-1.74-0.956-2.762
					c0.005-0.934,0.311-1.822,0.796-2.615c0.545-0.893,1.313-1.664,2.147-2.289c0.849-0.637,1.457-1.497,1.597-2.564
					c0.087-0.658-0.014-1.336-0.265-1.95c-0.234-0.571-0.605-1.106-1.087-1.497c-0.477-0.386-1.078-0.631-1.697-0.535
					c-0.533,0.084-1.033-0.282-1.116-0.816c-0.082-0.532,0.283-1.031,0.816-1.114c1.175-0.183,2.315,0.208,3.229,0.947
					c0.735,0.597,1.306,1.403,1.664,2.277c0.379,0.927,0.526,1.948,0.395,2.942c-0.21,1.6-1.085,2.916-2.363,3.874
					c-0.634,0.476-1.234,1.065-1.649,1.745c-0.295,0.482-0.508,1.034-0.511,1.605c-0.003,0.587,0.216,1.114,0.564,1.58
					C342.779,234.112,343.384,234.576,343.987,234.944L343.987,234.944z M351.128,234.944c0.459,0.28,0.606,0.886,0.325,1.345
					c-0.28,0.458-0.885,0.605-1.345,0.325c-0.82-0.502-1.599-1.125-2.179-1.898c-0.609-0.812-0.961-1.74-0.956-2.762
					c0.005-0.934,0.311-1.822,0.796-2.615c0.545-0.893,1.313-1.664,2.147-2.289c0.849-0.637,1.457-1.497,1.597-2.564
					c0.086-0.658-0.015-1.336-0.266-1.95c-0.233-0.571-0.605-1.106-1.087-1.497c-0.477-0.386-1.078-0.631-1.697-0.535
					c-0.533,0.084-1.033-0.282-1.116-0.816c-0.082-0.532,0.284-1.031,0.817-1.114c1.175-0.183,2.315,0.208,3.228,0.947
					c0.736,0.597,1.307,1.403,1.664,2.277c0.379,0.927,0.525,1.948,0.395,2.942c-0.21,1.6-1.085,2.916-2.363,3.874
					c-0.634,0.476-1.235,1.065-1.649,1.745c-0.295,0.482-0.508,1.034-0.511,1.605c-0.003,0.587,0.216,1.114,0.564,1.58
					C349.921,234.112,350.526,234.576,351.128,234.944L351.128,234.944z M358.5,234.944c0.459,0.28,0.605,0.886,0.325,1.345
					c-0.28,0.458-0.885,0.605-1.345,0.325c-0.82-0.502-1.599-1.125-2.179-1.898c-0.609-0.812-0.961-1.74-0.956-2.762
					c0.005-0.934,0.312-1.822,0.796-2.615c0.545-0.893,1.314-1.664,2.147-2.289c0.849-0.637,1.457-1.497,1.597-2.564
					c0.087-0.658-0.014-1.336-0.265-1.95c-0.233-0.571-0.606-1.106-1.087-1.497c-0.477-0.386-1.079-0.631-1.697-0.535
					c-0.533,0.084-1.033-0.282-1.115-0.816c-0.082-0.532,0.283-1.031,0.816-1.114c1.175-0.183,2.316,0.208,3.229,0.947
					c0.736,0.597,1.307,1.403,1.664,2.277c0.378,0.927,0.525,1.948,0.395,2.942c-0.21,1.6-1.085,2.916-2.363,3.874
					c-0.634,0.476-1.235,1.065-1.65,1.745c-0.295,0.482-0.508,1.034-0.511,1.605c-0.003,0.587,0.216,1.114,0.564,1.58
					C357.293,234.112,357.898,234.576,358.5,234.944z"/>
				<g>
					<path style="fill-rule:evenodd;clip-rule:evenodd;fill:#C4C4C4;" d="M341.853,238.882h18.338c2.395,0,4.699,1.985,4.353,4.354
						l-2.177,14.907c-0.346,2.369-1.959,4.354-4.354,4.354H344.03c-2.395,0-4.008-1.984-4.353-4.354l-0.181-1.238
						c-0.209,0.143-0.433,0.268-0.671,0.377c-0.298,0.139-0.618,0.248-0.957,0.324c-1.634,0.375-3.431-0.063-5.013-1.074
						c-1.479-0.947-2.799-2.41-3.608-4.168c-0.27-0.586-0.47-1.174-0.601-1.749c-0.313-1.365-0.246-2.676,0.158-3.779
						c0.448-1.227,1.288-2.193,2.472-2.738c0.298-0.139,0.618-0.246,0.957-0.324c1.634-0.375,3.431,0.063,5.013,1.076
						c0.185,0.117,0.367,0.244,0.545,0.377l-0.29-1.99C337.154,240.866,339.458,238.882,341.853,238.882L341.853,238.882z
						 M335.497,247.592c-0.871-0.557-1.786-0.816-2.539-0.643c-0.114,0.025-0.221,0.063-0.318,0.107
						c-0.363,0.166-0.628,0.482-0.776,0.889c-0.192,0.525-0.214,1.197-0.043,1.941c0.082,0.359,0.21,0.732,0.385,1.113
						c0.546,1.186,1.422,2.167,2.396,2.79c0.871,0.557,1.786,0.814,2.539,0.641c0.115-0.025,0.221-0.063,0.319-0.107
						c0.363-0.166,0.627-0.48,0.776-0.887c0.192-0.527,0.214-1.199,0.043-1.943c-0.082-0.359-0.21-0.733-0.385-1.112
						C337.347,249.193,336.471,248.215,335.497,247.592z"/>
					<path style="fill-rule:evenodd;clip-rule:evenodd;fill:#EBEBEB;" d="M360.191,238.882h-17.067
						c-0.615,1.712-0.953,3.577-0.953,5.526c0,8.378,6.232,15.167,13.918,15.167c2.272,0,4.415-0.592,6.31-1.643l2.146-14.696
						C364.891,240.868,362.586,238.882,360.191,238.882z"/>
				</g>
			</g>
			<g>
				<path style="fill-rule:evenodd;clip-rule:evenodd;fill:#C6323E;" d="M377.441,98.814h20.741c4.677,0,8.505,3.827,8.505,8.504
					v10.742c0,4.677-3.828,8.504-8.505,8.504h-13.062l-13.008,7.511l4.367-7.565c-4.229-0.481-7.543-4.097-7.543-8.449v-10.742
					C368.938,102.641,372.764,98.814,377.441,98.814z"/>
				<path style="fill-rule:evenodd;clip-rule:evenodd;fill:#FFFFFF;" d="M387.812,108.922c1.161-2.322,2.322-3.483,4.646-3.483
					c2.564,0,4.645,2.081,4.645,4.645c0,4.645-4.645,5.211-9.29,9.856c-4.644-4.646-9.289-5.212-9.289-9.856
					c0-2.564,2.081-4.645,4.646-4.645C385.49,105.439,386.65,106.6,387.812,108.922z"/>
			</g>
			<g>
				<path style="fill-rule:evenodd;clip-rule:evenodd;fill:#C6323E;" d="M257.383,176.814h-20.742c-4.677,0-8.504,3.827-8.504,8.504
					v10.742c0,4.677,3.827,8.504,8.504,8.504h13.061l13.008,7.511l-4.368-7.565c4.229-0.481,7.544-4.097,7.544-8.449v-10.742
					C265.887,180.641,262.06,176.814,257.383,176.814z"/>
				<path style="fill-rule:evenodd;clip-rule:evenodd;fill:#FFFFFF;" d="M247.012,186.922c-1.161-2.322-2.322-3.483-4.645-3.483
					c-2.563,0-4.645,2.081-4.645,4.645c0,4.645,4.645,5.212,9.29,9.857c4.645-4.645,9.289-5.212,9.289-9.857
					c0-2.563-2.08-4.645-4.644-4.645C249.334,183.439,248.172,184.6,247.012,186.922z"/>
			</g>
		</g>
		<g>
			<g>
				<path style="fill-rule:evenodd;clip-rule:evenodd;fill:#A9ADBB;" d="M467.551,75.924h61.863c3.276,0,5.958,2.682,5.958,5.958
					v75.104c0,3.277-2.682,5.959-5.958,5.959h-61.863c-3.277,0-5.958-2.682-5.958-5.959V81.882
					C461.593,78.606,464.273,75.924,467.551,75.924z"/>
				<path style="fill-rule:evenodd;clip-rule:evenodd;fill:#935B47;" d="M463.451,72.771h61.863c3.277,0,5.958,2.681,5.958,5.958
					v75.106c0,3.277-2.681,5.958-5.958,5.958h-61.863c-3.276,0-5.957-2.681-5.957-5.958V78.729
					C457.494,75.452,460.175,72.771,463.451,72.771z"/>
				<g>
					<rect x="463.319" y="78.499" style="fill-rule:evenodd;clip-rule:evenodd;fill:#FFFFFF;" width="62.327" height="75.72"/>
					<rect x="465.165" y="80.741" style="fill-rule:evenodd;clip-rule:evenodd;fill:#BCDCE9;" width="58.635" height="71.234"/>
					<g>
						<path style="fill-rule:evenodd;clip-rule:evenodd;fill:#E4AE91;" d="M505.534,142.874c2.288,0.871,4.741,2.967,6.648,4.784
							c0.83,0.793,1.654,2.387,2.465,4.316h9.153v-2.529c-1.788-3.003-3.706-5.457-5.448-7.119c-3.108-2.965-6.343-4.53-9.768-5.834
							L505.534,142.874z"/>
						<path style="fill-rule:evenodd;clip-rule:evenodd;fill:#E4AE91;" d="M487.504,146.005c-2.287,0.871-4.416,1.887-6.322,3.705
							c-0.58,0.553-1.227,1.329-1.899,2.265h-11.986c2.15-4.16,4.643-7.541,6.853-9.648c3.107-2.965,6.342-4.53,9.768-5.834
							L487.504,146.005z"/>
						<path style="fill-rule:evenodd;clip-rule:evenodd;fill:#224660;" d="M496.332,141.514c-2.447,0.094-4.789,0.375-7.176,1.488
							c-2.535,1.183-6.727,4.68-9.973,8.533l-7.41-7.075c4.353-5.169,9.334-8.956,13.079-10.702
							c3.893-1.815,7.458-2.266,11.12-2.406L496.332,141.514z"/>
						<path style="fill-rule:evenodd;clip-rule:evenodd;fill:#224660;" d="M481.084,151.975c0.811-2.846,1.449-5.266,1.567-6.222
							c0.47-3.803,1.985-9.231,6.307-11.213c6.173-2.83,14.544-2.482,16.593,1.923c0.514,1.105,2.541,2.676,3.089,5.398
							c0.117,0.584-1.235,1.8-1.119,2.429c0.438,2.37,0.862,5.024,1.246,7.686H481.084z"/>
						<path style="fill-rule:evenodd;clip-rule:evenodd;fill:#224660;" d="M496.332,141.514c2.446,0.094,4.788,0.375,7.176,1.488
							c2.535,1.183,6.727,4.68,9.973,8.533l7.41-7.075c-4.354-5.169-9.335-8.956-13.08-10.702c-3.892-1.815-7.457-2.266-11.12-2.406
							L496.332,141.514z"/>
						<path style="fill-rule:evenodd;clip-rule:evenodd;fill:#E4AE91;" d="M490.893,132.633c-0.031,0.088,0.742,7.727,5.939,5.383
							c4.071-1.836,5.614-6.02,5.614-6.02L490.893,132.633z"/>
						<path style="fill-rule:evenodd;clip-rule:evenodd;fill:#B77A65;" d="M490.893,132.633c-0.012,0.035,0.104,1.273,0.578,2.599
							c2.025,0.487,4.166,0.657,6.224,0.524c0.931-0.06,1.802-0.182,2.618-0.357c1.506-1.706,2.133-3.402,2.133-3.402
							L490.893,132.633z"/>
						<path style="fill-rule:evenodd;clip-rule:evenodd;fill:#A4461B;" d="M503.449,131.028c-4.409,7.018-8.008,7.468-8.008,7.468
							l2.609,5.308c0,0,4.948-5.982,6.072-9.177c1.125-3.193,0.811-1.979,0.811-1.979L503.449,131.028z"/>
						<path style="fill-rule:evenodd;clip-rule:evenodd;fill:#A4461B;" d="M493.418,138.045c-2.43,1.35-4.725,2.879-4.725,2.879
							s0.36-4.948,1.215-7.422c0.855-2.475,0.9-2.475,0.9-2.475l0.719,0.09C491.527,131.118,490.764,133.907,493.418,138.045z"/>
						<path style="fill-rule:evenodd;clip-rule:evenodd;fill:#381C0A;" d="M504.867,98.374c11.078,3.377,6.975,14.912,3.566,20.359
							c-3.409,5.448-3.409,5.448-3.409,5.448L504.867,98.374z"/>
						<path style="fill-rule:evenodd;clip-rule:evenodd;fill:#E4AE91;" d="M507.75,104.797c0.852,5.92,1.684,11.496,1.484,15.309
							c-0.08,1.541-0.225,2.955-0.418,4.272c-1.065,7.222-7.945,10.301-14.982,9.849c-6.847-0.439-10.522-4.217-12.819-8.432
							c-0.325-0.598-0.85-0.996-1.309-1.322c0,0-5.467-1.796-6.039-6.089c-0.571-4.292,3.611-3.218,3.611-3.218
							s-0.521-6.203,2.288-13.719C483.359,91.305,507.028,99.781,507.75,104.797z"/>
						<path style="fill-rule:evenodd;clip-rule:evenodd;fill:#D1967D;" d="M507.75,104.797l0.152,1.053
							c-0.812-0.875-1.662-1.572-1.662-1.572s-3.509,2.592-11.391,2.916c-7.881,0.323-9.932-2.97-10.363,0.107
							c-0.433,3.077-0.055,3.617-2.105,8.205c0,0-1.242-5.398-1.242-7.071c0-1.674,0.486-6.856,0.486-6.856s0.918-0.323,1.727-0.539
							c0.811-0.217,6.748-0.379,11.282-1.134c2.936-0.489,4.378-0.888,5.483-1.108C504.865,100.491,507.476,102.893,507.75,104.797z
							"/>
						<path style="fill-rule:evenodd;clip-rule:evenodd;fill:#B4856F;" d="M509.179,123.815c-0.025,0.189-0.052,0.378-0.079,0.563
							c-1.065,7.222-8.229,10.302-15.265,9.849c-6.847-0.439-10.522-4.217-12.819-8.432c-0.127-0.232-0.283-0.436-0.455-0.615
							c-0.034-1.712,0.012-4.261,0.012-4.261l1.079-1.079c2.104,5.721,5.02,10.256,10.419,11.714
							c5.397,1.457,13.228-1.491,15.127-4.427C509.098,124.192,508.676,124.741,509.179,123.815z"/>
						<path style="fill-rule:evenodd;clip-rule:evenodd;fill:#381C0A;" d="M489.506,113.42c-1.063,0.142-1.775,1.364-1.592,2.729
							c0.183,1.366,1.191,2.357,2.254,2.215s1.775-1.364,1.592-2.73C491.576,114.268,490.567,113.277,489.506,113.42z"/>
						<path style="fill-rule:evenodd;clip-rule:evenodd;fill:#FFFFFF;" d="M489.021,114.725c-0.309,0.041-0.524,0.325-0.482,0.633
							c0.041,0.309,0.324,0.525,0.633,0.484c0.309-0.041,0.525-0.325,0.483-0.633C489.613,114.901,489.33,114.684,489.021,114.725z"
							/>
						<path style="fill-rule:evenodd;clip-rule:evenodd;fill:#381C0A;" d="M502.334,112.288c-1.063,0.143-1.773,1.365-1.591,2.73
							c0.183,1.366,1.192,2.357,2.254,2.215c1.061-0.143,1.774-1.365,1.592-2.73C504.406,113.137,503.396,112.146,502.334,112.288z"
							/>
						<path style="fill-rule:evenodd;clip-rule:evenodd;fill:#FFFFFF;" d="M501.852,113.594c-0.309,0.041-0.525,0.324-0.484,0.633
							c0.041,0.309,0.325,0.525,0.633,0.484c0.309-0.042,0.525-0.326,0.484-0.634C502.443,113.77,502.159,113.553,501.852,113.594z"
							/>
						<path style="fill-rule:evenodd;clip-rule:evenodd;fill:#381C0A;" d="M504.86,110.616l-5.44,0.016
							c0.338-1.435,1.807-2.125,2.98-1.974C504.221,108.891,505.789,110.614,504.86,110.616z"/>
						<path style="fill-rule:evenodd;clip-rule:evenodd;fill:#381C0A;" d="M486.102,111.992l5.357-0.866
							C489.188,107.331,485.527,112.085,486.102,111.992z"/>
						<path style="fill-rule:evenodd;clip-rule:evenodd;fill:#B77A65;" d="M476.133,117.36c-1,0.143-1.185,1.365-0.41,2.73
							c0.773,1.365,2.211,2.357,3.211,2.215c1.001-0.143,1.186-1.365,0.411-2.73C478.571,118.21,477.133,117.217,476.133,117.36z"/>
						<path style="fill-rule:evenodd;clip-rule:evenodd;fill:#381C0A;" d="M483.611,103.282c0,0-0.412,1.67-0.521,3.122
							c-0.207,2.79,0.816,3.668,0.412,7.121c-0.273,2.349-0.866,6.452-2.776,8.072c-0.159,0.135-0.294,0.05-0.412-0.833
							c-0.573-4.307-2.202-6.604-5.572-5.441c0,0-1.808-10.542,0.174-13.684c1.981-3.143,4.065-2.861,4.065-2.861
							c5.359-10.687,19.028-9.232,25.52-4.438c3.829,2.829,5.041,8.38,0.705,10.271
							C499.805,106.966,485.686,107.397,483.611,103.282z"/>
						<path style="fill-rule:evenodd;clip-rule:evenodd;fill:#64422C;" d="M479.078,98.59c0.479-0.926,1.02-1.76,1.615-2.504
							c5.134,1.685,13.991,3.1,20.448-0.65c0.835-0.485,1.638-1.064,2.396-1.751c0.336,0.21,0.657,0.428,0.963,0.653
							c1.479,1.093,2.565,2.59,3.096,4.126c-1.614,1.101-4.859,2.777-10.047,3.168C491.114,102.118,483.313,100.731,479.078,98.59z"
							/>
						<path style="fill-rule:evenodd;clip-rule:evenodd;fill:#2B1600;" d="M490.951,124.961c-0.15-0.147-0.154-0.388-0.008-0.54
							c0.147-0.15,0.389-0.153,0.54-0.007c1.183,1.15,2.429,1.739,3.615,1.962c1.192,0.224,2.329,0.078,3.282-0.241
							c0.945-0.317,1.703-0.801,2.148-1.259c0.217-0.223,0.348-0.422,0.375-0.573c0.039-0.208,0.238-0.344,0.445-0.306
							c0.207,0.039,0.344,0.238,0.305,0.445c-0.055,0.299-0.258,0.636-0.578,0.965c-0.52,0.535-1.387,1.094-2.453,1.451
							c-1.063,0.355-2.331,0.518-3.665,0.268C493.637,126.878,492.254,126.227,490.951,124.961z"/>
						<path style="fill-rule:evenodd;clip-rule:evenodd;fill:#B77A65;" d="M496.378,120.602c1.19,0.452,3.708-0.264,3.708-0.264
							S498.781,123.766,496.378,120.602z"/>
						<path style="fill-rule:evenodd;clip-rule:evenodd;fill:#B4856F;" d="M497.604,122.647c-0.055,1.269-0.135,1.592-0.135,1.592
							s-3.401-0.026-4.939-0.647c-1.539-0.62-1.674-0.675-1.674-0.675L497.604,122.647z"/>
						<path style="fill-rule:evenodd;clip-rule:evenodd;fill:#B4856F;" d="M498.361,122.663c0.293,1.235,0.416,1.541,0.416,1.541
							s2.42-0.524,3.393-1.357c0.972-0.834,1.057-0.906,1.057-0.906L498.361,122.663z"/>
						<path style="fill-rule:evenodd;clip-rule:evenodd;fill:#002537;" d="M506.245,113.128c-0.002-0.021-0.002-0.039-0.001-0.059
							l-7.161,0.797c-0.037,0.033-0.081,0.058-0.132,0.072c-0.028,1.16,0.076,4.838,2.559,4.78l0.461-0.009
							c0.435-0.008,0.848-0.016,1.265-0.043C505.368,118.53,506.656,117.821,506.245,113.128L506.245,113.128z M509.921,111.893
							c0.194-0.021,0.374,0.119,0.4,0.314c0.026,0.195-0.11,0.372-0.306,0.394l-3.079,0.391c0.011,0.028,0.017,0.059,0.02,0.091
							c0.468,5.322-1.089,6.131-3.659,6.297c-0.386,0.024-0.83,0.033-1.299,0.041l-0.455,0.01c-2.132,0.05-2.902-1.857-3.17-3.518
							c-0.594-0.482-1.228-0.675-1.869-0.617c-0.709,0.064-1.44,0.432-2.145,1.05c-0.02,0.017-0.039,0.031-0.061,0.043
							c-0.297,1.501-1.069,3.155-3.004,3.453c-0.518,0.079-1.037,0.126-1.549,0.13c-1.276,0.011-2.472-0.254-3.432-0.949
							c-0.967-0.701-1.682-1.824-1.982-3.523c-0.061-0.344-0.104-0.717-0.129-1.117l-6.498,0.459
							c-0.196,0.006-0.365-0.147-0.377-0.344c-0.011-0.197,0.139-0.361,0.335-0.369l6.722-0.467c0.044-0.02,0.093-0.03,0.145-0.031
							c0.047,0,0.092,0.009,0.133,0.025C493.466,113.49,501.39,112.844,509.921,111.893L509.921,111.893z M498.238,113.962
							c-0.596,0.033-1.711,0.012-3.77,0.115c0.01,0.281,0.01,0.807-0.03,1.291c0.648-0.452,1.317-0.722,1.987-0.781
							c0.629-0.057,1.249,0.07,1.841,0.404C498.238,114.594,498.234,114.218,498.238,113.962L498.238,113.962z M484.914,114.362
							c0.023,0.365,0.064,0.709,0.121,1.031c0.264,1.492,0.871,2.464,1.686,3.055c0.822,0.596,1.87,0.821,3.003,0.813
							c0.466-0.004,0.953-0.049,1.448-0.125c2.537-0.39,2.625-3.835,2.588-4.938L484.914,114.362z"/>
						<g>
							<path style="fill-rule:evenodd;clip-rule:evenodd;fill:#AC714F;" d="M487.979,151.975c0.35-4.635,3.503-7.455,7.615-7.525
								c2.16-0.037,4.354-0.124,5.802,1.51c1.364,1.537,2.267,3.648,2.436,6.016H487.979z"/>
							<path style="fill-rule:evenodd;clip-rule:evenodd;fill:#AC714F;" d="M492.896,132.059c-4.347-2.988-5.208-3.34-5.46-3.264
								c-0.254,0.076,0.27,7.113,0.27,7.113S494.852,134.129,492.896,132.059z"/>
							<path style="fill-rule:evenodd;clip-rule:evenodd;fill:#C6323E;" d="M487.391,130.623c0.074,1.992,0.289,4.94,0.313,5.257
								c0.686-0.182,4.469-1.252,3.956-2.529l-0.661,0.393l-1.555-1.525c0,0,0.065,0,0.868,0.051
								c-2.248-1.508-2.753-1.698-2.916-1.648C487.394,130.62,487.393,130.622,487.391,130.623z"/>
							<path style="fill-rule:evenodd;clip-rule:evenodd;fill:#AC714F;" d="M499.04,132.13c4.424-2.888,5.294-3.218,5.544-3.136
								c0.251,0.08-0.456,7.104-0.456,7.104S497.029,134.154,499.04,132.13z"/>
							<path style="fill-rule:evenodd;clip-rule:evenodd;fill:#C6323E;" d="M504.602,130.458c-0.115,2.08-0.474,5.641-0.474,5.641
								s-0.183-0.05-0.478-0.141c-1.395-0.459-4.244-1.564-3.556-2.741l0.815,0.483l1.555-1.525c0,0-0.073,0-1.027,0.061
								C503.542,130.892,504.3,130.516,504.602,130.458z"/>
							<path style="fill-rule:evenodd;clip-rule:evenodd;fill:#AC714F;" d="M496.002,131.52c-5.244-0.061-9.541,3.286-9.596,7.476
								c-0.055,4.188,3.883,6.77,9.127,6.831c2.578,0.029,5.197,0.101,6.926-1.211c1.788-1.357,2.913-3.271,2.941-5.4
								C505.455,135.026,501.247,131.581,496.002,131.52z"/>
							<path style="fill-rule:evenodd;clip-rule:evenodd;fill:#94522B;" d="M486.455,138.297c-0.029,0.23-0.046,0.463-0.049,0.698
								c-0.002,0.097,0,0.193,0.004,0.29c0.861,0.121,1.354,0.128,1.357,0.128c0.29,0,0.526-0.222,0.526-0.495
								c0-0.273-0.236-0.494-0.526-0.494c0,0-0.466-0.006-1.275-0.123C486.48,138.299,486.469,138.297,486.455,138.297
								L486.455,138.297z M486.438,139.702c0.035,0.341,0.098,0.676,0.188,1.003c1.111,0.183,1.771,0.192,1.773,0.192
								c0.291,0,0.527-0.221,0.527-0.494c0-0.273-0.236-0.494-0.527-0.494c-0.002,0-0.655-0.01-1.777-0.206
								C486.559,139.692,486.497,139.692,486.438,139.702L486.438,139.702z M486.794,141.229c0.12,0.326,0.267,0.643,0.439,0.947
								c0.617,0.073,0.969,0.078,0.971,0.078c0.29,0,0.525-0.221,0.525-0.494c0-0.273-0.235-0.494-0.525-0.494
								c-0.002,0-0.387-0.006-1.075-0.098C487.008,141.153,486.892,141.176,486.794,141.229L486.794,141.229z M504.205,142.819
								c0.229-0.328,0.428-0.67,0.595-1.025h-0.013c-1.473,0.111-2.327,0.027-2.329,0.027c-0.29-0.021-0.543,0.182-0.566,0.455
								c-0.023,0.271,0.193,0.509,0.482,0.53C502.377,142.806,503.047,142.872,504.205,142.819L504.205,142.819z M505.031,141.236
								c0.118-0.33,0.21-0.669,0.273-1.017c-1.798,0.178-2.865,0.074-2.868,0.074c-0.29-0.023-0.545,0.178-0.57,0.449
								c-0.025,0.272,0.189,0.512,0.478,0.535C502.348,141.278,503.351,141.376,505.031,141.236L505.031,141.236z M505.373,139.712
								c0.016-0.164,0.024-0.33,0.026-0.496c0.003-0.166-0.003-0.329-0.014-0.492c-1.289,0.08-2.028,0.009-2.03,0.008
								c-0.287-0.029-0.547,0.166-0.579,0.438c-0.032,0.27,0.177,0.514,0.465,0.544C503.243,139.713,504.031,139.79,505.373,139.712
								z"/>
							<path style="fill-rule:evenodd;clip-rule:evenodd;fill:#59321A;" d="M496.002,131.52c-0.126-0.002-0.252-0.001-0.377,0.002
								c-0.816,1.844-1.041,3.063-1.042,3.066c-0.046,0.27,0.149,0.521,0.436,0.564c0.285,0.043,0.555-0.141,0.6-0.409
								c0-0.003,0.218-1.179,1.057-3.026c0.025-0.055,0.039-0.111,0.042-0.168C496.482,131.532,496.243,131.522,496.002,131.52
								L496.002,131.52z M494.929,131.555c0.009,0.077-0.001,0.158-0.034,0.234c-0.656,1.557-0.834,2.518-0.834,2.52
								c-0.047,0.27-0.318,0.451-0.604,0.406c-0.286-0.045-0.479-0.299-0.432-0.568c0.001-0.002,0.177-0.957,0.779-2.449
								C494.172,131.633,494.547,131.585,494.929,131.555L494.929,131.555z M498.316,131.774c-0.006,0.027-0.016,0.055-0.025,0.082
								c-0.646,1.539-0.822,2.49-0.822,2.493c-0.048,0.269-0.318,0.45-0.605,0.405c-0.285-0.045-0.478-0.299-0.432-0.567
								c0.001-0.003,0.188-1.015,0.836-2.586C497.624,131.643,497.975,131.702,498.316,131.774z"/>
							<path style="fill-rule:evenodd;clip-rule:evenodd;fill:#F2DDC5;" d="M487.53,142.661c2.69,4.012,11.735,4.416,14.981,1.914
								c-1.584-2.363-4.686-3.989-8.273-4.03C491.634,140.514,489.264,141.325,487.53,142.661z"/>
							<path style="fill-rule:evenodd;clip-rule:evenodd;fill:#381C0A;" d="M494.727,142.7c0,0-2.672-1.355-2.202-2.037
								c0.341-0.493,4.174-0.383,4.492,0.129C497.456,141.499,494.727,142.7,494.727,142.7z"/>
							<path style="fill-rule:evenodd;clip-rule:evenodd;fill:#381C0A;" d="M495.008,142.155c-0.01-0.141-0.131-0.246-0.272-0.236
								c-0.141,0.01-0.246,0.132-0.236,0.271c0.063,0.873-0.15,1.357-0.459,1.563c-0.131,0.088-0.284,0.127-0.439,0.123
								c-0.162-0.004-0.33-0.055-0.482-0.141c-0.342-0.191-0.601-0.563-0.561-1.004c0.012-0.14-0.09-0.264-0.23-0.275
								c-0.139-0.014-0.263,0.09-0.275,0.23c-0.061,0.661,0.316,1.214,0.817,1.495c0.222,0.125,0.471,0.197,0.72,0.203
								c0.256,0.006,0.51-0.059,0.734-0.208C494.771,143.876,495.086,143.241,495.008,142.155z"/>
							<path style="fill-rule:evenodd;clip-rule:evenodd;fill:#381C0A;" d="M495.049,142.157c0.016-0.14-0.083-0.268-0.223-0.283
								c-0.14-0.018-0.268,0.082-0.284,0.222c-0.133,1.081,0.15,1.732,0.583,2.054c0.215,0.16,0.467,0.236,0.723,0.243
								c0.248,0.007,0.5-0.054,0.729-0.167c0.515-0.256,0.918-0.788,0.893-1.451c-0.006-0.141-0.125-0.25-0.266-0.244
								c-0.14,0.006-0.248,0.123-0.243,0.264c0.018,0.441-0.259,0.801-0.61,0.976c-0.157,0.078-0.327,0.119-0.49,0.115
								c-0.154-0.005-0.305-0.05-0.432-0.144C495.13,143.518,494.941,143.025,495.049,142.157z"/>
							<path style="fill-rule:evenodd;clip-rule:evenodd;fill:#FFFFFF;" d="M495.225,140.567c0.633,0.017,1.084,0.143,1.008,0.282
								c-0.076,0.139-0.65,0.238-1.282,0.222c-0.632-0.018-1.083-0.143-1.007-0.282S494.594,140.55,495.225,140.567z"/>
							<path style="fill-rule:evenodd;clip-rule:evenodd;fill:#94522B;" d="M490.672,151.975c0.262-0.803,0.667-1.492,1.184-2.051
								c2.521-2.729,8.221-2.728,9.561,2.051H490.672z"/>
						</g>
						<path style="fill-rule:evenodd;clip-rule:evenodd;fill:#381C0A;" d="M491.545,135.571c-0.68-0.006-1.236,0.697-1.243,1.571
							c-0.007,0.874,0.538,1.586,1.217,1.591c0.679,0.006,1.235-0.697,1.243-1.57C492.769,136.29,492.224,135.577,491.545,135.571z"
							/>
						<path style="fill-rule:evenodd;clip-rule:evenodd;fill:#FFFFFF;" d="M491.235,136.051c-0.197,0-0.358,0.158-0.36,0.355
							c-0.001,0.197,0.157,0.357,0.354,0.359c0.197,0.002,0.358-0.156,0.36-0.354C491.592,136.215,491.433,136.053,491.235,136.051z
							"/>
						<path style="fill-rule:evenodd;clip-rule:evenodd;fill:#381C0A;" d="M499.329,135.876c-0.679,0.004-1.226,0.715-1.222,1.588
							c0.006,0.873,0.56,1.578,1.238,1.574c0.68-0.004,1.227-0.714,1.222-1.587C500.563,136.578,500.008,135.873,499.329,135.876z"
							/>
						<path style="fill-rule:evenodd;clip-rule:evenodd;fill:#FFFFFF;" d="M499.027,136.362c-0.197,0.001-0.357,0.162-0.356,0.358
							c0.001,0.197,0.162,0.357,0.359,0.355c0.197-0.001,0.355-0.162,0.355-0.358C499.385,136.52,499.225,136.36,499.027,136.362z"
							/>
					</g>
				</g>
				<g>
					<path style="fill-rule:evenodd;clip-rule:evenodd;fill:#D8EAF2;" d="M523.8,80.741h-6.095l-52.54,52.539v18.695h1.347
						L523.8,94.688V80.741L523.8,80.741z M515.177,80.741l-50.012,50.012v-7.076l42.936-42.936H515.177z"/>
					<g>
						<path style="fill-rule:evenodd;clip-rule:evenodd;fill:#EFD1C1;" d="M468.224,150.264c1.919-3.377,4.026-6.127,5.925-7.938
							c2.078-1.982,4.213-3.339,6.423-4.41L468.224,150.264z"/>
						<path style="fill-rule:evenodd;clip-rule:evenodd;fill:#7D92A1;" d="M472.926,145.561l-1.152-1.101
							c4.264-5.061,9.128-8.798,12.844-10.591L472.926,145.561z"/>
						<path style="fill-rule:evenodd;clip-rule:evenodd;fill:#8A7E7A;" d="M504.867,98.374c4.92,1.5,6.845,4.609,7.166,8.081
							l-7.074,7.073L504.867,98.374z"/>
						<path style="fill-rule:evenodd;clip-rule:evenodd;fill:#EFD1C1;" d="M507.75,104.797c0.256,1.779,0.51,3.526,0.735,5.205
							l-21.971,21.971c-2.481-1.578-4.208-3.809-5.499-6.178c-0.325-0.598-0.85-0.996-1.309-1.322c0,0-1.959-0.644-3.654-2.081
							l23.515-23.514C504.008,100.567,507.48,102.923,507.75,104.797L507.75,104.797z M474.818,121.1l22.874-22.875
							c-1.864-0.593-3.833-1.053-5.767-1.309l-14.587,14.586c-0.176,2.27-0.06,3.664-0.06,3.664s-4.183-1.074-3.611,3.218
							C473.809,119.436,474.243,120.337,474.818,121.1z"/>
						<path style="fill-rule:evenodd;clip-rule:evenodd;fill:#E4C2B2;" d="M507.75,104.797l0.152,1.053
							c-0.812-0.875-1.662-1.572-1.662-1.572s-3.509,2.592-11.391,2.916c-1.325,0.054-2.485,0.006-3.501-0.098l8.173-8.172
							c0.212-0.047,0.409-0.09,0.596-0.127C504.865,100.491,507.476,102.893,507.75,104.797L507.75,104.797z M489.152,106.764
							l7.158-7.156c-0.5,0.094-1.055,0.193-1.677,0.298c-2.054,0.343-4.396,0.563-6.419,0.722l-7.057,7.056
							c-0.012,0.292-0.02,0.548-0.02,0.752c0,1.083,0.52,3.726,0.887,5.456l1.648-1.646c0.602-1.895,0.512-2.808,0.813-4.943
							C484.785,105.161,485.87,106.102,489.152,106.764z"/>
						<path style="fill-rule:evenodd;clip-rule:evenodd;fill:#D3B8AA;" d="M486.515,131.973c-2.481-1.578-4.208-3.809-5.499-6.178
							c-0.127-0.232-0.283-0.436-0.455-0.615c-0.034-1.712,0.012-4.261,0.012-4.261l1.079-1.079
							c1.591,4.321,3.643,7.965,6.878,10.118L486.515,131.973z"/>
						<path style="fill-rule:evenodd;clip-rule:evenodd;fill:#8A7E7A;" d="M489.506,113.42c-1.063,0.142-1.775,1.364-1.592,2.729
							c0.183,1.366,1.191,2.357,2.254,2.215s1.775-1.364,1.592-2.73C491.576,114.268,490.567,113.277,489.506,113.42z"/>
						<path style="fill-rule:evenodd;clip-rule:evenodd;fill:#FFFFFF;" d="M489.021,114.725c-0.309,0.041-0.524,0.325-0.482,0.633
							c0.041,0.309,0.324,0.525,0.633,0.484c0.309-0.041,0.525-0.325,0.483-0.633C489.613,114.901,489.33,114.684,489.021,114.725z"
							/>
						<path style="fill-rule:evenodd;clip-rule:evenodd;fill:#8A7E7A;" d="M502.334,112.288c-1.063,0.143-1.773,1.365-1.591,2.73
							c0.101,0.756,0.455,1.396,0.932,1.795l2.807-2.807C504.15,112.906,503.262,112.164,502.334,112.288z"/>
						<path style="fill-rule:evenodd;clip-rule:evenodd;fill:#FFFFFF;" d="M501.852,113.594c-0.309,0.041-0.525,0.324-0.484,0.633
							c0.041,0.309,0.325,0.525,0.633,0.484c0.309-0.042,0.525-0.326,0.484-0.634C502.443,113.77,502.159,113.553,501.852,113.594z"
							/>
						<path style="fill-rule:evenodd;clip-rule:evenodd;fill:#8A7E7A;" d="M504.86,110.616l-5.44,0.016
							c0.338-1.435,1.807-2.125,2.98-1.974C504.221,108.891,505.789,110.614,504.86,110.616z"/>
						<path style="fill-rule:evenodd;clip-rule:evenodd;fill:#8A7E7A;" d="M486.521,111.923l4.937-0.798
							c-0.821-1.372-1.823-1.627-2.741-1.397L486.521,111.923z"/>
						<path style="fill-rule:evenodd;clip-rule:evenodd;fill:#D2AFA4;" d="M476.133,117.36c-1,0.143-1.185,1.365-0.41,2.73
							l0.038,0.066l2.175-2.176C477.322,117.53,476.665,117.284,476.133,117.36L476.133,117.36z M476.924,121.522l2.24-2.24
							c0.064,0.096,0.124,0.193,0.181,0.293c0.774,1.365,0.59,2.588-0.411,2.73C478.342,122.389,477.595,122.076,476.924,121.522z"
							/>
						<path style="fill-rule:evenodd;clip-rule:evenodd;fill:#8A7E7A;" d="M483.166,105.676c-0.031,0.242-0.059,0.488-0.076,0.728
							c-0.182,2.437,0.576,3.415,0.502,5.921l-4.446,4.447c-0.915-1.568-2.329-2.164-4.404-1.449c0,0-0.068-0.397-0.163-1.059
							L483.166,105.676L483.166,105.676z M483.283,115.162l-3.406,3.407c0.186,0.655,0.329,1.391,0.436,2.195
							c0.118,0.883,0.253,0.968,0.412,0.833C482.242,120.311,482.928,117.457,483.283,115.162L483.283,115.162z M497.578,91.263
							c1.865,0.437,3.617,1.107,5.135,1.94l-12.91,12.91c-2.238-0.305-4.147-0.881-5.293-1.781L497.578,91.263L497.578,91.263z
							 M504.271,94.175l-12.155,12.155c4.728,0.261,10.177-0.449,13.09-1.72c4.336-1.892,3.124-7.442-0.705-10.271
							C504.424,94.284,504.348,94.229,504.271,94.175z"/>
						<path style="fill-rule:evenodd;clip-rule:evenodd;fill:#A28F84;" d="M491.033,97.809c2.971,0.015,6.021-0.436,8.748-1.673
							l-5.588,5.588c-2.16-0.037-4.377-0.247-6.484-0.591L491.033,97.809L491.033,97.809z M504.271,94.174l-7.509,7.508
							c0.265-0.014,0.526-0.029,0.786-0.049c5.188-0.391,8.433-2.067,10.047-3.168c-0.53-1.536-1.617-3.033-3.096-4.126
							C504.424,94.284,504.348,94.229,504.271,94.174z"/>
						<path style="fill-rule:evenodd;clip-rule:evenodd;fill:#827C76;" d="M490.951,124.961c-0.15-0.147-0.154-0.388-0.008-0.54
							c0.147-0.15,0.389-0.153,0.54-0.007c0.479,0.466,0.967,0.839,1.458,1.133l-0.555,0.555
							C491.902,125.795,491.422,125.418,490.951,124.961z"/>
						<path style="fill-rule:evenodd;clip-rule:evenodd;fill:#D2AFA4;" d="M496.378,120.602c0.367,0.139,0.86,0.168,1.368,0.141
							l-0.648,0.647C496.869,121.192,496.63,120.934,496.378,120.602z"/>
						<path style="fill-rule:evenodd;clip-rule:evenodd;fill:#D3B8AA;" d="M494.457,124.03c-0.719-0.096-1.424-0.234-1.928-0.438
							c-1.539-0.62-1.674-0.675-1.674-0.675l4.912-0.196L494.457,124.03z"/>
						<path style="fill-rule:evenodd;clip-rule:evenodd;fill:#748089;" d="M505.316,113.172l-6.233,0.693
							c-0.037,0.033-0.081,0.058-0.132,0.072c-0.022,0.907,0.037,3.352,1.25,4.35l-0.508,0.507c-0.783-0.691-1.152-1.835-1.32-2.882
							c-0.594-0.482-1.228-0.675-1.869-0.617c-0.709,0.064-1.44,0.432-2.145,1.05c-0.02,0.017-0.039,0.031-0.061,0.043
							c-0.297,1.501-1.069,3.155-3.004,3.453c-0.518,0.079-1.037,0.126-1.549,0.13c-1.276,0.011-2.472-0.254-3.432-0.949
							c-0.967-0.701-1.682-1.824-1.982-3.523c-0.061-0.344-0.104-0.717-0.129-1.117l-0.15,0.011l0.74-0.74
							c7.459-0.144,14.291-0.634,21.402-1.36L505.316,113.172L505.316,113.172z M482.098,113.82l-0.764,0.765l-3.629,0.256
							c-0.196,0.006-0.365-0.147-0.377-0.344c-0.011-0.197,0.139-0.361,0.335-0.369L482.098,113.82L482.098,113.82z
							 M498.238,113.962c-0.596,0.033-1.711,0.012-3.77,0.115c0.01,0.281,0.01,0.807-0.03,1.291
							c0.648-0.452,1.317-0.722,1.987-0.781c0.629-0.057,1.249,0.07,1.841,0.404C498.238,114.594,498.234,114.218,498.238,113.962
							L498.238,113.962z M484.914,114.362c0.023,0.365,0.064,0.709,0.121,1.031c0.264,1.492,0.871,2.464,1.686,3.055
							c0.822,0.596,1.87,0.821,3.003,0.813c0.466-0.004,0.953-0.049,1.448-0.125c2.537-0.39,2.625-3.835,2.588-4.938
							L484.914,114.362z"/>
						<g>
							<path style="fill-rule:evenodd;clip-rule:evenodd;fill:#CDA995;" d="M488.994,129.493c-1.073-0.645-1.416-0.74-1.559-0.697
								c-0.096,0.029-0.081,1.035-0.026,2.283L488.994,129.493z"/>
							<path style="fill-rule:evenodd;clip-rule:evenodd;fill:#DB9183;" d="M487.391,130.623l0.018,0.456l0.366-0.366
								c-0.217-0.097-0.32-0.111-0.38-0.093C487.394,130.62,487.393,130.622,487.391,130.623z"/>
						</g>
					</g>
				</g>
			</g>
			<g>
				<path style="fill-rule:evenodd;clip-rule:evenodd;fill:#A9ADBB;" d="M586.997,125.597v32.995c0,1.747-1.43,3.177-3.178,3.177
					h-40.058c-1.747,0-3.178-1.43-3.178-3.177v-32.995c0-1.747,1.431-3.178,3.178-3.178h40.058
					C585.567,122.42,586.997,123.85,586.997,125.597z"/>
				<path style="fill-rule:evenodd;clip-rule:evenodd;fill:#935B47;" d="M585.197,123.347v32.995c0,1.747-1.43,3.178-3.178,3.178
					h-40.058c-1.747,0-3.177-1.431-3.177-3.178v-32.995c0-1.747,1.43-3.178,3.177-3.178h40.058
					C583.768,120.17,585.197,121.6,585.197,123.347z"/>
				<path style="fill-rule:evenodd;clip-rule:evenodd;fill:#BCDCE9;" d="M581.712,126.506v26.677c0,1.413-1.156,2.569-2.569,2.569
					h-34.304c-1.413,0-2.569-1.156-2.569-2.569v-26.677c0-1.414,1.156-2.569,2.569-2.569h34.304
					C580.556,123.937,581.712,125.092,581.712,126.506z"/>
				<path style="fill-rule:evenodd;clip-rule:evenodd;fill:#D0E6EE;" d="M542.27,126.506v22.073
					c9.391-5.422,22.115-12.769,39.358-22.724c-0.29-1.102-1.297-1.919-2.485-1.919h-34.304
					C543.426,123.937,542.27,125.093,542.27,126.506z"/>
			</g>
			<g>
				<path style="fill-rule:evenodd;clip-rule:evenodd;fill:#A9ADBB;" d="M453.238,122.251h-32.995c-1.748,0-3.178-1.43-3.178-3.178
					V79.016c0-1.748,1.43-3.178,3.178-3.178h32.995c1.747,0,3.178,1.43,3.178,3.178v40.057
					C456.416,120.821,454.985,122.251,453.238,122.251z"/>
				<path style="fill-rule:evenodd;clip-rule:evenodd;fill:#935B47;" d="M450.688,119.85h-32.994c-1.748,0-3.178-1.43-3.178-3.178
					V76.616c0-1.748,1.43-3.178,3.178-3.178h32.994c1.748,0,3.178,1.43,3.178,3.178v40.057
					C453.865,118.42,452.436,119.85,450.688,119.85z"/>
				<path style="fill-rule:evenodd;clip-rule:evenodd;fill:#BCDCE9;" d="M420.853,116.366h26.677c1.413,0,2.568-1.156,2.568-2.57
					V79.493c0-1.414-1.155-2.569-2.568-2.569h-26.677c-1.413,0-2.569,1.155-2.569,2.569v34.303
					C418.283,115.21,419.439,116.366,420.853,116.366z"/>
				<path style="fill-rule:evenodd;clip-rule:evenodd;fill:#D0E6EE;" d="M420.853,76.923h22.073
					c-5.422,9.391-12.768,22.115-22.724,39.358c-1.101-0.29-1.919-1.297-1.919-2.485V79.493
					C418.283,78.08,419.439,76.923,420.853,76.923z"/>
			</g>
		</g>
	</g>
</g>
</svg>
